<svg width="810" height="810" viewBox="0 0 810 810" fill="none" xmlns="http://www.w3.org/2000/svg">
<path d="M689.504 137.846L685.568 131.366C652.341 76.5936 592.24 43.578 528.881 47.5794C520.71 48.0909 512.588 49.2063 504.581 50.9166C447.12 63.18 396.9 106.79 376.132 162.583C363.917 195.388 360.499 233.167 337.252 259.2C307.071 293.107 255.847 294.16 210.794 292.766C165.742 291.373 114.502 292.556 84.4344 326.576C65.6262 347.895 59.6484 378.189 61.1712 406.733C65.1888 482.29 117.871 549.86 184.793 583.427C251.716 616.993 330.593 620.023 403.866 605.248C506.525 584.561 604.146 527.731 662.839 440.008C721.532 352.285 736.468 232.583 689.504 137.846Z" fill="#CFC4DC"/>
<path d="M756.945 698.22C756.945 698.447 597.942 698.641 401.873 698.641C205.805 698.641 46.7532 698.366 46.7532 698.22C46.7532 698.074 205.724 697.799 401.873 697.799C598.023 697.799 756.945 697.896 756.945 698.22Z" fill="#646464"/>
<path d="M548.208 125.113H132.176V547.155H548.208V125.113Z" fill="white"/>
<path d="M548.208 547.155C548.208 547.155 548.208 546.961 548.208 546.637C548.208 546.313 548.208 545.794 548.208 545.146C548.208 543.834 548.208 541.906 548.208 539.314C548.208 534.163 548.208 526.565 548.127 516.634C548.127 496.805 548.013 467.743 547.932 430.774C547.851 356.951 547.722 251.521 547.56 125.113L548.289 125.842L132.305 125.955L133.148 125.113C133.148 279.774 133.148 424.651 133.034 547.139L132.305 546.426L433.722 546.782L518.303 546.977L540.626 547.058H546.377H547.835H548.337H546.458H540.788L518.594 547.139L434.192 547.333L132.305 547.69H131.576V546.961C131.576 424.472 131.576 279.661 131.463 124.934V124.092H132.354L548.337 124.205H549.083V124.934C548.921 251.537 548.791 357.113 548.71 431.114C548.613 468.018 548.548 497.016 548.516 516.812C548.516 526.662 548.516 534.227 548.418 539.347C548.418 541.874 548.418 543.802 548.418 545.098V546.539C548.373 546.752 548.302 546.959 548.208 547.155Z" fill="#263238"/>
<path d="M164.835 193.946V205.141H162.745V195.696H160.38V193.946H164.835Z" fill="#646464"/>
<path d="M166.99 203.926C166.99 203.753 167.023 203.583 167.089 203.423C167.155 203.264 167.252 203.12 167.374 202.998C167.496 202.876 167.64 202.779 167.8 202.713C167.959 202.647 168.129 202.613 168.302 202.613C168.474 202.613 168.645 202.647 168.804 202.713C168.963 202.779 169.108 202.876 169.23 202.998C169.351 203.12 169.448 203.264 169.514 203.423C169.58 203.583 169.614 203.753 169.614 203.926C169.614 204.098 169.58 204.269 169.514 204.428C169.448 204.587 169.351 204.732 169.23 204.853C169.108 204.975 168.963 205.072 168.804 205.138C168.645 205.204 168.474 205.238 168.302 205.238C168.129 205.238 167.959 205.204 167.8 205.138C167.64 205.072 167.496 204.975 167.374 204.853C167.252 204.732 167.155 204.587 167.089 204.428C167.023 204.269 166.99 204.098 166.99 203.926Z" fill="#646464"/>
<path d="M304.333 148.7C304.278 147.498 304.584 146.307 305.212 145.28C305.84 144.253 306.761 143.438 307.856 142.94C308.951 142.441 310.171 142.282 311.357 142.482C312.544 142.683 313.643 143.234 314.514 144.065C315.384 144.895 315.986 145.968 316.242 147.144C316.498 148.32 316.396 149.545 315.949 150.662C315.502 151.78 314.731 152.738 313.734 153.413C312.738 154.088 311.563 154.45 310.36 154.451C309.581 154.49 308.802 154.371 308.072 154.1C307.341 153.828 306.673 153.411 306.109 152.872C305.545 152.334 305.096 151.686 304.791 150.969C304.486 150.252 304.33 149.479 304.333 148.7ZM314.296 148.7C314.296 147.921 314.065 147.16 313.633 146.513C313.2 145.865 312.585 145.361 311.866 145.063C311.147 144.765 310.355 144.687 309.592 144.839C308.828 144.991 308.127 145.366 307.576 145.916C307.025 146.467 306.651 147.168 306.499 147.932C306.347 148.695 306.425 149.487 306.723 150.206C307.021 150.926 307.525 151.54 308.173 151.973C308.82 152.406 309.581 152.636 310.36 152.636C310.879 152.65 311.397 152.557 311.879 152.364C312.362 152.171 312.801 151.881 313.167 151.512C313.534 151.144 313.822 150.704 314.014 150.221C314.205 149.737 314.296 149.22 314.28 148.7H314.296Z" fill="#646464"/>
<path d="M328.536 143.111V154.305H326.835L320.663 146.723V154.305H318.589V143.111H320.306L326.479 150.66V143.111H328.536Z" fill="#646464"/>
<path d="M331.549 143.111H333.623V152.539H339.487V154.305H331.549V143.111Z" fill="#646464"/>
<path d="M341.123 143.111H343.197V154.305H341.123V143.111Z" fill="#646464"/>
<path d="M356.173 143.111V154.305H354.456L348.3 146.723V154.305H346.242V143.111H347.96L354.116 150.66V143.111H356.173Z" fill="#646464"/>
<path d="M367.578 152.555V154.305H359.17V143.111H367.27V144.844H361.26V147.76H366.671V149.461H361.26V152.555H367.578Z" fill="#646464"/>
<path d="M376.569 144.86H372.859V143.111H382.32V144.86H378.61V154.305H376.52L376.569 144.86Z" fill="#646464"/>
<path d="M392.331 152.555V154.305H383.94V143.111H392.04V144.844H385.949V147.76H391.343V149.461H385.949V152.555H392.331Z" fill="#646464"/>
<path d="M393.66 153.122L394.389 151.502C395.457 152.296 396.751 152.728 398.082 152.734C399.832 152.734 400.561 152.102 400.561 151.276C400.561 148.862 393.903 150.449 393.903 146.286C393.903 144.472 395.344 142.949 398.423 142.949C399.732 142.925 401.023 143.267 402.149 143.937L401.484 145.557C400.555 144.993 399.493 144.685 398.406 144.666C396.673 144.666 395.976 145.346 395.976 146.189C395.976 148.57 402.602 147.015 402.602 151.13C402.602 152.928 401.144 154.37 398.082 154.37C396.512 154.442 394.961 154.004 393.66 153.122Z" fill="#646464"/>
<path d="M406.814 144.86H403.104V143.111H412.598V144.86H408.888V154.305H406.814V144.86Z" fill="#646464"/>
<path d="M216.675 243.13H211.07L209.968 245.722H207.83L212.868 234.527H214.909L219.963 245.722H217.793L216.675 243.13ZM215.978 241.51L213.872 236.65L211.782 241.51H215.978Z" fill="#646464"/>
<path d="M160.25 154.289C162.764 154.289 164.802 152.251 164.802 149.737C164.802 147.222 162.764 145.184 160.25 145.184C157.736 145.184 155.698 147.222 155.698 149.737C155.698 152.251 157.736 154.289 160.25 154.289Z" fill="#646464"/>
<path d="M174.037 154.289C176.551 154.289 178.589 152.251 178.589 149.737C178.589 147.222 176.551 145.184 174.037 145.184C171.522 145.184 169.484 147.222 169.484 149.737C169.484 152.251 171.522 154.289 174.037 154.289Z" fill="#646464"/>
<path d="M187.823 154.289C190.337 154.289 192.375 152.251 192.375 149.737C192.375 147.222 190.337 145.184 187.823 145.184C185.309 145.184 183.271 147.222 183.271 149.737C183.271 152.251 185.309 154.289 187.823 154.289Z" fill="#646464"/>
<path d="M548.208 172.255C548.208 172.481 455.544 172.676 341.253 172.676C226.962 172.676 134.282 172.481 134.282 172.255C134.282 172.028 226.93 171.833 341.253 171.833C455.576 171.833 548.208 172.028 548.208 172.255Z" fill="#646464"/>
<path d="M502.718 203.553C502.718 203.78 430.58 203.974 341.609 203.974C252.639 203.974 180.468 203.78 180.468 203.553C180.468 203.326 252.607 203.132 341.609 203.132C430.612 203.132 502.718 203.31 502.718 203.553Z" fill="#646464"/>
<path d="M304.819 214.504C304.819 214.731 277.279 214.925 243.259 214.925C209.239 214.925 181.602 214.731 181.602 214.504C181.602 214.277 209.142 214.083 243.259 214.083C277.376 214.083 304.819 214.261 304.819 214.504Z" fill="#646464"/>
<path d="M199.26 247.487H184.502V232.729H199.26V247.487ZM186.122 245.867H197.64V234.349H186.122V245.867Z" fill="#646464"/>
<path d="M219.283 270.702C219.283 272.614 217.776 273.731 214.893 273.731H209.336V262.537H214.569C217.258 262.537 218.7 263.671 218.7 265.453C218.717 265.958 218.59 266.457 218.335 266.893C218.08 267.329 217.706 267.683 217.258 267.916C217.86 268.083 218.389 268.45 218.756 268.956C219.124 269.462 219.31 270.077 219.283 270.702ZM211.41 264.222V267.3H214.358C215.784 267.3 216.61 266.798 216.61 265.777C216.61 264.757 215.784 264.157 214.358 264.157L211.41 264.222ZM217.177 270.54C217.177 269.422 216.335 268.92 214.763 268.92H211.41V272.16H214.763C216.335 272.16 217.177 271.609 217.177 270.54Z" fill="#646464"/>
<path d="M199.26 275.513H184.502V260.82H199.26V275.513ZM186.122 273.893H197.64V262.44H186.122V273.893Z" fill="#646464"/>
<path d="M208.526 296.152C208.584 294.969 208.988 293.828 209.688 292.872C210.387 291.916 211.352 291.185 212.462 290.772C213.572 290.358 214.78 290.279 215.934 290.544C217.089 290.809 218.141 291.407 218.959 292.264L217.615 293.528C217.238 293.108 216.775 292.773 216.258 292.547C215.741 292.321 215.182 292.208 214.618 292.216C213.574 292.216 212.572 292.63 211.834 293.369C211.096 294.107 210.681 295.108 210.681 296.152C210.681 297.196 211.096 298.198 211.834 298.936C212.572 299.674 213.574 300.089 214.618 300.089C215.183 300.097 215.744 299.982 216.262 299.753C216.779 299.524 217.24 299.185 217.615 298.76L218.959 300.04C218.141 300.897 217.089 301.495 215.934 301.76C214.78 302.026 213.572 301.946 212.462 301.533C211.352 301.119 210.387 300.389 209.688 299.432C208.988 298.476 208.584 297.336 208.526 296.152Z" fill="#646464"/>
<path d="M199.26 303.523H184.502V288.765H199.26V303.523ZM186.122 301.903H197.64V290.385H186.122V301.903Z" fill="#646464"/>
<path d="M209.336 318.573H214.196C217.825 318.573 220.304 320.809 220.304 324.162C220.304 327.515 217.825 329.767 214.196 329.767H209.336V318.573ZM214.196 328.001C214.72 328.036 215.246 327.962 215.74 327.785C216.235 327.608 216.687 327.331 217.071 326.972C217.454 326.613 217.759 326.179 217.968 325.697C218.177 325.215 218.285 324.695 218.285 324.17C218.285 323.645 218.177 323.125 217.968 322.643C217.759 322.162 217.454 321.728 217.071 321.369C216.687 321.009 216.235 320.733 215.74 320.556C215.246 320.379 214.72 320.305 214.196 320.339H211.41V328.001H214.196Z" fill="#646464"/>
<path d="M199.26 331.549H184.502V316.791H199.26V331.549ZM186.122 329.929H197.64V318.411H186.122V329.929Z" fill="#646464"/>
<path d="M341.593 240.116C341.593 240.343 317.293 240.538 287.226 240.538C257.159 240.538 232.843 240.343 232.843 240.116C232.843 239.89 257.143 239.695 287.226 239.695C317.309 239.695 341.593 239.873 341.593 240.116Z" fill="#646464"/>
<path d="M491.281 268.126C491.281 268.369 433.415 268.547 362.07 268.547C290.725 268.547 232.843 268.369 232.843 268.126C232.843 267.883 290.693 267.705 362.07 267.705C433.447 267.705 491.281 267.899 491.281 268.126Z" fill="#646464"/>
<path d="M268.401 324.162C268.401 324.389 260.447 324.583 250.581 324.583C240.716 324.583 232.761 324.389 232.761 324.162C232.761 323.935 240.716 323.741 250.581 323.741C260.447 323.741 268.401 324 268.401 324.162Z" fill="#646464"/>
<path d="M362.054 296.152C362.054 296.379 333.137 296.573 297.448 296.573C261.76 296.573 232.843 296.379 232.843 296.152C232.843 295.925 261.76 295.731 297.448 295.731C333.137 295.731 362.054 295.909 362.054 296.152Z" fill="#646464"/>
<path d="M165.24 364.046V365.796H156.978V364.403L161.433 360.191C162.518 359.154 162.713 358.49 162.713 357.874C162.713 356.837 162 356.254 160.623 356.254C160.127 356.229 159.632 356.321 159.179 356.524C158.725 356.727 158.326 357.034 158.015 357.421L156.557 356.303C157.07 355.683 157.721 355.192 158.458 354.869C159.195 354.545 159.997 354.398 160.801 354.44C163.231 354.44 164.802 355.671 164.802 357.68C164.785 358.37 164.609 359.048 164.289 359.66C163.969 360.272 163.513 360.803 162.956 361.211L159.959 364.063L165.24 364.046Z" fill="#646464"/>
<path d="M166.455 364.581C166.455 364.233 166.593 363.899 166.839 363.653C167.085 363.407 167.419 363.269 167.767 363.269C168.115 363.269 168.449 363.407 168.695 363.653C168.941 363.899 169.079 364.233 169.079 364.581C169.079 364.929 168.941 365.263 168.695 365.509C168.449 365.755 168.115 365.893 167.767 365.893C167.419 365.893 167.085 365.755 166.839 365.509C166.593 365.263 166.455 364.929 166.455 364.581Z" fill="#646464"/>
<path d="M212.754 403.785H207.165L206.064 406.377H203.909L208.947 395.183H211.005L216.059 406.377H213.84L212.754 403.785ZM212.074 402.165L209.968 397.305L207.862 402.165H212.074Z" fill="#646464"/>
<path d="M498.798 364.208C498.798 364.435 426.659 364.63 337.689 364.63C248.718 364.63 176.58 364.5 176.58 364.208C176.58 363.917 248.702 363.787 337.705 363.787C426.708 363.787 498.798 363.982 498.798 364.208Z" fill="#646464"/>
<path d="M300.915 375.16C300.915 375.386 273.375 375.581 239.258 375.581C205.141 375.581 177.601 375.386 177.601 375.16C177.601 374.933 205.141 374.738 239.258 374.738C273.375 374.738 300.915 374.917 300.915 375.16Z" fill="#646464"/>
<path d="M195.275 408.24H180.517V393.482H195.275V408.24ZM182.137 406.62H193.655V395.102H182.137V406.62Z" fill="#646464"/>
<path d="M215.363 431.357C215.363 433.269 213.856 434.387 210.989 434.387H205.416V423.193H210.6C213.289 423.193 214.731 424.327 214.731 426.109C214.744 426.613 214.616 427.11 214.361 427.545C214.106 427.98 213.735 428.336 213.289 428.571C213.902 428.727 214.443 429.089 214.821 429.596C215.198 430.104 215.39 430.725 215.363 431.357ZM207.506 424.877V427.972H210.438C211.88 427.972 212.69 427.453 212.69 426.433C212.69 425.412 211.88 424.813 210.438 424.813L207.506 424.877ZM213.273 431.195C213.273 430.078 212.431 429.575 210.859 429.575H207.506V432.815H210.859C212.431 432.767 213.273 432.265 213.273 431.147V431.195Z" fill="#646464"/>
<path d="M195.275 436.169H180.517V421.411H195.275V436.169ZM182.137 434.549H193.655V423.031H182.137V434.549Z" fill="#646464"/>
<path d="M204.622 456.84C204.614 456.062 204.766 455.291 205.068 454.573C205.369 453.856 205.815 453.208 206.376 452.669C206.938 452.13 207.604 451.712 208.333 451.441C209.062 451.169 209.839 451.049 210.616 451.089C211.445 451.055 212.271 451.204 213.036 451.526C213.8 451.848 214.484 452.335 215.039 452.952L213.71 454.216C213.332 453.797 212.869 453.464 212.353 453.238C211.836 453.012 211.277 452.898 210.713 452.903C209.669 452.903 208.668 453.318 207.93 454.056C207.191 454.795 206.777 455.796 206.777 456.84C206.777 457.884 207.191 458.885 207.93 459.624C208.668 460.362 209.669 460.777 210.713 460.777C211.279 460.784 211.839 460.669 212.357 460.439C212.874 460.21 213.336 459.872 213.71 459.448L215.039 460.728C214.223 461.587 213.172 462.187 212.017 462.453C210.863 462.72 209.656 462.641 208.545 462.227C207.435 461.812 206.472 461.081 205.774 460.123C205.077 459.165 204.676 458.024 204.622 456.84Z" fill="#646464"/>
<path d="M195.275 464.179H180.517V449.42H195.275V464.179ZM182.137 462.559H193.655V451.04H182.137V462.559Z" fill="#646464"/>
<path d="M205.416 479.228H210.276C213.905 479.228 216.383 481.464 216.383 484.834C216.383 488.203 213.905 490.423 210.276 490.423H205.416V479.228ZM210.276 488.673C210.81 488.722 211.348 488.659 211.856 488.489C212.364 488.318 212.832 488.043 213.228 487.682C213.624 487.321 213.94 486.881 214.156 486.39C214.373 485.9 214.485 485.37 214.485 484.834C214.485 484.297 214.373 483.767 214.156 483.277C213.94 482.786 213.624 482.346 213.228 481.985C212.832 481.624 212.364 481.349 211.856 481.178C211.348 481.008 210.81 480.945 210.276 480.994H207.571V488.673H210.276Z" fill="#646464"/>
<path d="M195.275 492.205H180.517V477.446H195.275V492.205ZM182.137 490.585H193.655V479.066H182.137V490.585Z" fill="#646464"/>
<path d="M337.689 400.772C337.689 400.999 313.389 401.193 283.306 401.193C253.222 401.193 228.922 400.999 228.922 400.772C228.922 400.545 253.222 400.351 283.306 400.351C313.389 400.351 337.689 400.545 337.689 400.772Z" fill="#646464"/>
<path d="M487.361 428.782C487.361 429.025 429.511 429.203 358.15 429.203C286.789 429.203 228.922 429.025 228.922 428.782C228.922 428.539 286.772 428.36 358.15 428.36C429.527 428.36 487.361 428.555 487.361 428.782Z" fill="#646464"/>
<path d="M264.497 484.817C264.497 485.06 256.527 485.239 246.677 485.239C236.828 485.239 228.857 485.06 228.857 484.817C228.857 484.574 236.828 484.396 246.677 484.396C256.527 484.396 264.497 484.591 264.497 484.817Z" fill="#646464"/>
<path d="M358.15 456.84C358.15 457.067 329.216 457.261 293.544 457.261C257.872 457.261 228.922 457.067 228.922 456.84C228.922 456.613 257.855 456.419 293.544 456.419C329.233 456.419 358.15 456.565 358.15 456.84Z" fill="#646464"/>
<path d="M462.769 523.26H396.074C393.385 523.26 390.723 522.73 388.24 521.701C385.757 520.672 383.5 519.163 381.6 517.262C379.7 515.36 378.193 513.102 377.166 510.618C376.139 508.134 375.611 505.472 375.613 502.783C375.613 497.357 377.769 492.152 381.606 488.315C385.443 484.478 390.647 482.323 396.074 482.323H462.769C468.195 482.323 473.4 484.478 477.237 488.315C481.074 492.152 483.23 497.357 483.23 502.783C483.232 505.472 482.704 508.134 481.677 510.618C480.65 513.102 479.143 515.36 477.243 517.262C475.342 519.163 473.086 520.672 470.603 521.701C468.119 522.73 465.457 523.26 462.769 523.26Z" fill="#7E2ADB"/>
<path d="M408.699 508.354H407.243L401.387 499.474V508.354H399.931V497.186H401.387L407.243 506.05V497.186H408.699V508.354ZM412.637 498.386V502.114H416.701V503.314H412.637V507.154H417.181V508.354H411.181V497.186H417.181V498.386H412.637ZM423.944 502.786L427.368 508.354H425.72L423.048 504.002L420.504 508.354H418.888L422.296 502.786L418.872 497.202H420.504L423.192 501.57L425.752 497.202H427.384L423.944 502.786ZM436.185 497.202V498.386H433.145V508.354H431.689V498.386H428.633V497.202H436.185Z" fill="white"/>
<path d="M459.254 508.21C459.118 508.208 458.986 508.174 458.867 508.109C458.748 508.044 458.648 507.951 458.573 507.838C458.456 507.659 458.414 507.441 458.457 507.232C458.499 507.023 458.623 506.839 458.8 506.72L463.968 503.269C464.05 503.218 464.117 503.146 464.163 503.061C464.208 502.976 464.23 502.88 464.227 502.783C464.227 502.685 464.202 502.589 464.153 502.504C464.105 502.419 464.036 502.348 463.952 502.297L458.833 499.268C458.652 499.156 458.522 498.978 458.471 498.772C458.42 498.566 458.453 498.348 458.561 498.165C458.669 497.983 458.845 497.85 459.05 497.795C459.256 497.741 459.474 497.769 459.659 497.875L464.778 500.888C465.098 501.08 465.364 501.35 465.552 501.672C465.74 501.995 465.843 502.359 465.853 502.732C465.863 503.105 465.778 503.475 465.607 503.806C465.436 504.138 465.185 504.421 464.875 504.63L459.707 508.064C459.574 508.156 459.416 508.207 459.254 508.21Z" fill="white"/>
<path d="M182.671 275.254C182.185 274.768 185.312 270.832 189.669 266.458C194.027 262.084 197.964 258.973 198.466 259.459C198.968 259.945 195.825 263.898 191.468 268.256C187.11 272.614 183.173 275.756 182.671 275.254Z" fill="#7E2ADB"/>
<path d="M201.155 276.793C200.669 277.295 196.474 273.893 191.792 269.212C187.11 264.53 183.692 260.35 184.21 259.848C184.729 259.346 188.908 262.748 193.574 267.43C198.239 272.111 201.658 276.307 201.155 276.793Z" fill="#7E2ADB"/>
<path d="M179.123 408.953C178.621 408.451 181.764 404.514 186.122 400.156C190.479 395.798 194.416 392.672 194.918 393.158C195.42 393.644 192.278 397.58 187.904 401.954C183.53 406.328 179.609 409.439 179.123 408.953Z" fill="#7E2ADB"/>
<path d="M197.64 410.492C197.138 410.978 192.958 407.592 188.276 402.91C183.595 398.228 180.176 394.033 180.695 393.547C181.213 393.061 185.377 396.446 190.058 401.128C194.74 405.81 198.094 409.99 197.64 410.492Z" fill="#7E2ADB"/>
<path d="M493.322 737.975L379.582 701.46C379.278 701.365 378.96 701.327 378.643 701.346L291.163 707.826C275.789 670.566 256.527 623.991 247.763 602.721C246.302 599.234 243.95 596.193 240.941 593.903C237.932 591.614 234.374 590.157 230.623 589.68L135.886 577.303C134.759 577.166 133.617 577.328 132.572 577.771C131.528 578.215 130.618 578.924 129.934 579.83C129.25 580.735 128.816 581.804 128.675 582.93C128.534 584.056 128.691 585.199 129.13 586.245L182.477 710.645C183.183 712.296 184.224 713.782 185.535 715.009C186.846 716.236 188.397 717.177 190.091 717.773L298.453 761.011C300.929 761.998 303.613 762.355 306.261 762.048L313.195 761.286C337.203 758.775 455.755 746.707 492.836 742.819C493.424 742.788 493.981 742.548 494.408 742.142C494.834 741.736 495.1 741.191 495.159 740.605C495.218 740.02 495.065 739.432 494.728 738.95C494.391 738.467 493.892 738.121 493.322 737.975Z" fill="#E0E0E0"/>
<path d="M493.323 737.975C493.702 738.097 494.046 738.308 494.328 738.589C494.61 738.871 494.82 739.216 494.943 739.595C495.09 740.074 495.093 740.586 494.952 741.067C494.811 741.548 494.531 741.976 494.149 742.3C493.638 742.695 493.012 742.911 492.367 742.916L490.228 743.143L463.612 745.961L365.699 756.151L333.299 759.521L316.046 761.303L307.185 762.259C304.116 762.737 300.975 762.373 298.096 761.206L225.618 732.337L206.259 724.61L196.393 720.689L191.419 718.713C190.593 718.357 189.799 718.065 188.908 717.692C188.061 717.317 187.257 716.85 186.511 716.299C185.01 715.189 183.753 713.783 182.817 712.168C181.91 710.548 181.327 708.847 180.582 707.179L176.256 697.118C173.351 690.379 170.43 683.57 167.492 676.69C155.715 649.15 143.5 620.768 131.01 591.64L129.292 587.639C128.566 586.308 128.193 584.813 128.207 583.297C128.3 581.753 128.907 580.284 129.932 579.124C130.956 577.964 132.339 577.181 133.861 576.898C134.233 576.817 134.622 576.898 135.011 576.785L136.129 576.866L138.267 577.157L142.528 577.708L151.017 578.81L184.518 583.2L217.242 587.477L225.342 588.53C228.015 588.935 230.688 589.113 233.442 589.745C238.763 591.116 243.384 594.419 246.402 599.011C247.752 601.298 248.886 603.706 249.788 606.204C250.782 608.623 251.775 611.032 252.769 613.429L258.649 627.701L270.119 655.501C277.603 673.677 284.812 691.141 291.665 707.762L291.309 707.535L376.553 701.233L378.918 701.055C379.345 701.051 379.768 701.128 380.166 701.282L381.283 701.654L385.56 703.08L394.179 705.85L410.427 711.18L439.101 720.43L479.196 733.39L489.726 736.841C492.108 737.618 493.323 738.04 493.323 738.04C493.323 738.04 492.091 737.683 489.694 736.938L479.131 733.601L439.02 720.738L410.33 711.569L393.968 706.32L385.35 703.566L380.927 702.157C380.232 701.872 379.502 701.681 378.756 701.59L376.391 701.768L291.163 708.248H290.92L290.806 708.005C283.938 691.4 276.729 673.985 269.212 655.776L257.726 627.977C255.782 623.268 253.816 618.511 251.829 613.705C250.841 611.307 249.837 608.845 248.848 606.479C247.959 604.034 246.848 601.675 245.527 599.432C242.634 595.024 238.206 591.848 233.102 590.522C230.575 589.907 227.853 589.712 225.196 589.324L217.096 588.271L184.356 584.01L150.855 579.636L142.35 578.534L138.089 577.967C136.725 577.692 135.329 577.604 133.942 577.708C132.608 577.961 131.397 578.651 130.499 579.669C129.602 580.687 129.069 581.975 128.985 583.329C128.974 584.719 129.326 586.087 130.005 587.299L131.771 591.3L168.237 676.366C171.186 683.235 174.102 690.044 176.985 696.794C178.443 700.164 179.869 703.517 181.311 706.855C182.04 708.475 182.671 710.257 183.514 711.715C184.387 713.233 185.568 714.551 186.981 715.586C187.681 716.104 188.436 716.544 189.232 716.899C190.01 717.239 190.852 717.547 191.695 717.887L196.668 719.879L206.518 723.816L225.958 731.543L298.404 760.493C301.172 761.627 304.198 761.98 307.152 761.513L316.03 760.558L333.283 758.808L365.683 755.568L463.628 745.637L490.261 742.964L492.399 742.77C493.017 742.769 493.619 742.57 494.116 742.203C494.485 741.897 494.756 741.491 494.897 741.033C495.038 740.576 495.043 740.087 494.91 739.627C494.755 739.056 494.383 738.567 493.873 738.266C493.517 738.056 493.323 737.991 493.323 737.975Z" fill="#263238"/>
<path d="M346.939 715.457L389.594 733.309L442.746 727.769L398.05 709.317L346.939 715.457Z" fill="#F5F5F5"/>
<path d="M314.782 749.201L398.05 741.685L318.541 710.159L292.977 712.087L306.488 744.682L314.782 749.201Z" fill="#F5F5F5"/>
<path d="M485.077 737.926L484.51 738.024L482.809 738.234L476.329 738.898L452.256 741.247L372.876 748.651L310.473 754.288H310.214L310.117 754.045L296.298 720.333L292.507 710.905C292.086 709.825 291.762 708.998 291.535 708.426C291.417 708.14 291.314 707.848 291.228 707.551C291.228 707.551 291.373 707.827 291.633 708.377L292.702 710.824L296.671 720.171C300.073 728.271 304.933 739.854 310.765 753.786L310.408 753.559L372.795 747.776L452.256 740.616L476.28 738.574L482.76 738.056L484.461 737.942L485.077 737.926Z" fill="#646464"/>
<path d="M131.884 581.807H132.597L134.703 582.05L142.803 583.103L172.514 587.153C185.053 588.902 200.054 591.008 216.562 593.455L229.262 595.415L232.502 595.966C233.037 596.047 233.604 596.176 234.122 596.306C234.398 596.306 234.689 596.419 234.965 596.5C236.331 597.049 237.571 597.87 238.61 598.914C239.031 599.362 239.366 599.884 239.598 600.453L240.23 602.073C243.616 610.529 247.115 619.294 250.711 628.252C265.032 664.135 277.976 696.632 287.372 720.187C292.021 731.932 295.78 741.458 298.404 748.067C299.668 751.307 300.656 753.899 301.352 755.681C301.676 756.524 301.919 757.172 302.098 757.658C302.189 757.879 302.265 758.106 302.324 758.338C302.21 758.128 302.107 757.912 302.017 757.69L301.19 755.73L298.096 748.197C295.423 741.587 291.616 732.11 286.756 720.398L250.015 628.56C246.418 619.601 242.919 610.837 239.533 602.381L238.901 600.761C238.706 600.283 238.426 599.844 238.075 599.465C237.351 598.677 236.475 598.043 235.499 597.602C235.257 597.485 235.008 597.383 234.754 597.294L233.977 597.1C233.458 596.986 232.94 596.873 232.357 596.792L229.117 596.225L216.416 594.232L172.417 587.752L142.738 583.427L134.638 582.228L132.548 581.888L131.884 581.807Z" fill="#646464"/>
<path d="M215.622 656.278C219.672 661.705 220.482 667.942 217.453 670.21C214.423 672.478 208.656 669.935 204.606 664.508C200.556 659.081 199.746 652.86 202.775 650.576C205.805 648.292 211.572 650.867 215.622 656.278Z" fill="white"/>
<path d="M728.158 563.76C722.731 532.98 688.694 514.431 677.452 504.193L694.348 526.792C702.996 562.458 706.272 599.216 704.068 635.85C703.841 639.851 704.279 645.246 707.13 645.813C708.16 645.899 709.183 645.579 709.981 644.922C719.96 638.523 726.44 623.862 727.882 608.764C729.324 593.665 730.62 578 728.158 563.76Z" fill="#7E2ADB"/>
<path d="M703.242 529.286C701.622 526.192 702.286 516.326 693.522 526.63L692.955 522.774L638.798 481.14L518.092 487.409C506.509 488.138 489.11 508.194 484.769 516.569C481.205 547.722 480.492 575.375 480.492 575.375C480.492 575.375 476.345 610.011 480.492 626.389C484.639 642.767 489.548 648.68 495.963 661.414C500.657 670.113 506.51 678.135 513.362 685.26L518.999 729L645.1 740.34L702.821 737.1C702.821 737.1 697.653 650.835 697.653 649.312C697.653 648.599 704.862 631.946 712.606 614.272C725.76 584.026 718.34 558.479 703.242 529.286Z" fill="#455A64"/>
<path d="M386.564 686.183C387.196 686.183 393.498 643.594 397.629 633.922C401.517 624.802 484.769 516.553 484.769 516.553L504.371 579.733L495.963 613.526L450.603 668.104L437.789 707.664L386.564 686.183Z" fill="#455A64"/>
<path d="M720.025 561.654C714.048 523.762 684.531 525.415 684.531 525.415L655.193 576.461V682.02L513.653 694.267L511.029 729.81C511.029 729.81 652.05 762.048 684.628 751.243C706.19 744.098 724.399 726.068 726.392 696.6C728.385 667.132 726.019 599.562 720.025 561.654Z" fill="#455A64"/>
<path d="M450.749 668.039C450.337 665.625 449.796 663.235 449.129 660.879C447.353 655.219 444.149 650.111 439.824 646.051C435.499 641.99 430.201 639.113 424.44 637.697C422.044 637.158 419.622 636.747 417.182 636.466C417.85 636.386 418.524 636.386 419.191 636.466C421.007 636.54 422.813 636.778 424.586 637.178C430.497 638.487 435.944 641.37 440.351 645.523C444.757 649.675 447.958 654.942 449.615 660.766C450.125 662.512 450.472 664.301 450.652 666.112C450.764 666.748 450.796 667.395 450.749 668.039Z" fill="#646464"/>
<path d="M518.497 692.809C518.699 692.755 518.905 692.717 519.113 692.696L520.911 692.437L527.845 691.513L553.392 688.273L637.632 678.035L656.359 675.799L655.987 676.204C657.072 647.498 657.607 622.193 657.412 604.066C657.412 595.01 657.218 587.736 657.105 582.73C657.105 580.268 656.991 578.34 656.959 576.995V575.505C656.959 575.165 656.959 575.003 656.959 574.987C656.976 575.159 656.976 575.333 656.959 575.505C656.959 575.878 656.959 576.364 657.056 576.979C657.056 578.34 657.218 580.219 657.331 582.73C657.542 587.72 657.769 594.994 657.898 604.066C658.19 622.193 657.801 647.53 656.748 676.22V676.577H656.392L637.665 678.829L553.344 688.824L527.78 691.756L520.814 692.501L519 692.68L518.497 692.809Z" fill="#646464"/>
<path d="M728.32 692.809C728.341 693.025 728.341 693.242 728.32 693.457C728.32 693.911 728.32 694.543 728.222 695.336C728.076 697.752 727.8 700.159 727.396 702.545C726.76 706.331 725.834 710.063 724.626 713.707C722.972 718.521 720.753 723.121 718.017 727.412C714.687 732.638 710.484 737.252 705.591 741.053C699.969 745.418 693.47 748.518 686.54 750.141C682.809 751.038 679.02 751.672 675.2 752.037C671.225 752.393 667.235 752.544 663.244 752.49C654.877 752.321 646.534 751.542 638.28 750.157L590.474 742.3L569.624 738.834L551.464 735.48C540.4 733.406 531.425 731.835 525.204 730.896L518.027 729.842L516.164 729.583C515.95 729.564 515.738 729.521 515.533 729.454H516.164L518.044 729.648C519.664 729.826 522.126 730.102 525.253 730.539C531.49 731.382 540.481 732.872 551.578 734.864L569.706 738.104L590.571 741.49L638.377 749.299C646.602 750.699 654.919 751.495 663.261 751.68C667.311 751.68 671.263 751.567 675.135 751.259C678.911 750.911 682.657 750.294 686.346 749.412C693.188 747.829 699.608 744.79 705.17 740.502C710.017 736.771 714.191 732.24 717.514 727.105C720.255 722.866 722.489 718.32 724.173 713.561C725.41 709.955 726.379 706.262 727.072 702.513C727.607 699.419 727.931 696.989 728.044 695.336L728.239 693.457C728.251 693.24 728.278 693.023 728.32 692.809Z" fill="#646464"/>
<path d="M514.674 695.417C514.608 695.201 514.564 694.978 514.544 694.753C514.463 694.251 514.35 693.587 514.237 692.777C513.977 690.962 513.605 688.435 513.151 685.228V685.341L502.427 673.466C500.336 670.485 498.448 667.368 496.773 664.135C494.901 660.455 493.246 656.668 491.816 652.795C488.655 644.041 486.481 634.961 485.336 625.725C484.205 615.727 483.972 605.648 484.639 595.609C485.141 586.375 486.097 578.081 487.004 571.147C487.912 564.214 488.77 558.625 489.386 554.753L490.115 550.314C490.196 549.844 490.261 549.472 490.325 549.164C490.338 549.03 490.371 548.899 490.423 548.775C490.437 548.904 490.437 549.035 490.423 549.164C490.423 549.488 490.423 549.86 490.293 550.33C490.147 551.432 489.969 552.922 489.726 554.801C489.208 558.673 488.446 564.278 487.604 571.228C486.761 578.178 486 586.44 485.498 595.674C484.879 605.661 485.128 615.684 486.243 625.628C487.372 634.807 489.501 643.836 492.593 652.552C493.993 656.386 495.615 660.135 497.453 663.779C499.093 666.994 500.938 670.1 502.978 673.078L513.556 685.098L514.431 692.663C514.512 693.49 514.577 694.154 514.642 694.656C514.698 694.906 514.709 695.164 514.674 695.417Z" fill="#646464"/>
<path d="M676.755 699.354C675.687 698.169 674.707 696.907 673.823 695.579C672.057 693.198 669.578 689.958 666.678 686.507C663.779 683.057 661.041 680.027 659.016 677.889C657.853 676.779 656.77 675.588 655.776 674.325C657.094 675.24 658.311 676.294 659.405 677.468C662.189 680.155 664.823 682.995 667.294 685.973C669.783 688.931 672.113 692.019 674.276 695.223C675.24 696.513 676.07 697.897 676.755 699.354Z" fill="#646464"/>
<path d="M421.2 691.384C420.001 684.466 413.7 679.072 413.7 679.072C413.7 679.072 410.686 670.648 406.183 668.428C401.679 666.209 398.083 670.648 394.162 669.449C390.242 668.25 381.834 667.942 379.129 669.449C376.423 670.955 373.119 679.363 373.119 679.363C370.391 679.473 367.723 680.193 365.31 681.469C363.265 682.526 361.495 684.046 360.142 685.908C358.968 685.451 357.683 685.361 356.456 685.65C355.229 685.939 354.12 686.594 353.274 687.528C351.63 689.449 350.4 691.688 349.661 694.105L347.523 699.84C347.111 700.715 346.922 701.677 346.972 702.643C347.137 703.437 347.566 704.151 348.19 704.669C348.814 705.187 349.595 705.478 350.406 705.494C351.23 705.498 352.045 705.328 352.799 704.996C353.552 704.664 354.227 704.177 354.78 703.566C355.883 702.478 356.856 701.265 357.68 699.954L358.215 703.712C358.215 703.712 359.106 709.657 363.917 710.014C367.238 710.273 370.834 706.417 370.834 706.417L379.242 705.51L380.441 713.918C380.995 715.538 382.054 716.938 383.462 717.912C384.87 718.886 386.554 719.383 388.266 719.329C391.279 719.329 395.167 714.226 395.167 714.226L402.991 717.223C402.991 717.223 411.999 723.541 416.211 721.435C417.388 720.839 418.328 719.859 418.876 718.658C419.424 717.457 419.546 716.105 419.224 714.825C421.022 712.787 422.443 710.445 423.42 707.908C424.554 704.311 422.464 698.301 421.2 691.384Z" fill="#FFBE9D"/>
<path d="M358.02 702.27C357.678 699.296 357.781 696.287 358.328 693.344C358.608 690.367 359.34 687.45 360.499 684.693C360.726 684.693 359.835 688.63 359.154 693.473C358.474 698.317 358.328 702.27 358.02 702.27Z" fill="#EB996E"/>
<path d="M371.158 694.364C371.669 696.409 371.909 698.511 371.871 700.618C372.043 702.139 371.889 703.68 371.417 705.137C370.948 706.271 370.283 706.757 370.235 706.628C370.186 706.498 370.575 705.996 370.85 705.008C371.128 703.594 371.188 702.147 371.029 700.715C370.782 698.602 370.825 696.465 371.158 694.364Z" fill="#EB996E"/>
<path d="M376.764 690.784C376.926 690.946 375.824 692.404 374.285 693.895C372.746 695.385 371.385 696.584 371.207 696.422C371.029 696.26 372.147 694.802 373.686 693.311C375.225 691.821 376.602 690.622 376.764 690.784Z" fill="#EB996E"/>
<path d="M377.881 674.617C378.063 676.132 378.128 677.66 378.076 679.185C378.076 682.02 378.189 685.908 378.416 690.201C378.643 694.494 378.983 698.382 379.226 701.201C379.456 702.712 379.554 704.241 379.517 705.769C379.07 704.303 378.777 702.793 378.643 701.266C378.238 698.463 377.817 694.575 377.574 690.25C377.331 685.924 377.363 682.02 377.476 679.185C377.453 677.652 377.588 676.121 377.881 674.617Z" fill="#EB996E"/>
<path d="M409.407 677.841C409.407 677.841 409.05 678.65 408.483 680.108C407.693 682.173 407.065 684.297 406.604 686.459C406.312 687.852 406.005 689.359 405.664 690.962C405.343 692.718 404.865 694.442 404.239 696.114C403.539 698.003 402.362 699.677 400.821 700.974C399.979 701.704 398.977 702.224 397.895 702.492C396.814 702.759 395.685 702.766 394.6 702.513C393.472 702.259 392.453 701.658 391.684 700.796C390.974 699.94 390.519 698.901 390.372 697.799C390.142 695.831 390.104 693.845 390.258 691.87C390.442 688.555 390.952 685.267 391.781 682.052C392.337 679.886 393.052 677.764 393.919 675.702C394.227 674.973 394.47 674.422 394.665 674.082C394.747 673.885 394.856 673.699 394.989 673.531C394.787 674.32 394.532 675.093 394.227 675.848C393.483 677.932 392.861 680.058 392.364 682.214C391.627 685.407 391.183 688.661 391.036 691.934C390.907 693.846 390.956 695.766 391.182 697.669C391.314 698.621 391.706 699.518 392.316 700.261C392.976 700.986 393.84 701.494 394.794 701.719C395.756 701.941 396.756 701.931 397.713 701.692C398.671 701.452 399.558 700.99 400.302 700.342C401.747 699.128 402.862 697.567 403.542 695.806C404.56 692.687 405.399 689.512 406.053 686.297C406.562 684.122 407.278 682.001 408.192 679.963C408.444 679.405 408.731 678.864 409.05 678.343C409.245 678.002 409.374 677.824 409.407 677.841Z" fill="#EB996E"/>
<path d="M412.582 681.485C412.354 683.282 411.561 684.959 410.318 686.276C409.075 687.592 407.445 688.479 405.664 688.808C407.083 687.871 408.432 686.832 409.698 685.697C410.763 684.367 411.727 682.959 412.582 681.485Z" fill="#EB996E"/>
<path d="M395.183 702.432C395.715 704.681 395.852 707.005 395.588 709.301C395.502 711.344 395.214 713.373 394.729 715.36V715.473C394.669 715.504 394.602 715.522 394.533 715.524C394.465 715.525 394.397 715.512 394.335 715.484C394.273 715.456 394.217 715.414 394.174 715.362C394.13 715.309 394.098 715.248 394.081 715.181C394.081 715.019 394.081 714.955 394.081 714.955C394.081 714.955 394.081 715.036 394.195 715.1C394.308 715.165 394.422 715.23 394.47 715.1L394.373 715.23C394.373 714.128 394.616 711.828 394.762 709.171C394.744 706.918 394.884 704.666 395.183 702.432Z" fill="#EB996E"/>
<path d="M414.25 695.725C413.626 696.756 412.887 697.712 412.047 698.576C410.191 700.736 408.562 703.081 407.187 705.575C405.82 708.065 405.044 710.837 404.919 713.675C404.919 715.862 405.292 717.19 405.146 717.223C404.578 716.128 404.294 714.908 404.32 713.675C404.271 710.703 405.003 707.77 406.442 705.17C407.869 702.612 409.635 700.258 411.691 698.171C412.436 697.25 413.296 696.428 414.25 695.725Z" fill="#EB996E"/>
<path d="M410.929 710.661C410.423 708.84 410.507 706.905 411.171 705.135C411.835 703.365 413.043 701.851 414.623 700.812C420.277 696.794 437.206 686.232 437.562 686.232C437.918 686.232 457.439 679.752 465.653 678.91C473.866 678.067 509.814 695.919 509.814 695.919C509.814 695.919 518.157 707.94 516.812 719.474C515.468 731.009 507.951 731.673 507.951 731.673L497.518 729.129L486.761 727.072C486.761 727.072 462.964 733.698 459.221 732.483C455.479 731.268 454.183 727.202 458.233 724.998C462.283 722.795 473.931 719.345 473.931 719.345L482.89 715.554L453.73 719.717C453.73 719.717 429.073 724.577 426.19 723.897C423.306 723.217 422.869 721.062 422.626 719.037C422.626 719.037 412.695 723.897 409.747 721.24C406.798 718.583 405.502 712.8 410.929 710.661Z" fill="#FFBE9D"/>
<path d="M473.866 703.566C473.144 703.683 472.41 703.721 471.679 703.679C470.286 703.679 468.261 703.679 465.766 703.841C462.856 703.974 459.965 704.38 457.132 705.056C455.462 705.482 453.834 706.063 452.272 706.79C450.652 707.535 449.032 708.41 447.412 709.382C445.759 710.327 444.037 711.145 442.26 711.828C440.599 712.442 438.859 712.818 437.092 712.946C434.182 712.947 431.28 713.273 428.442 713.918C426.589 714.508 424.954 715.636 423.744 717.158C423.334 717.75 422.971 718.373 422.658 719.021C422.658 719.021 422.658 718.81 422.755 718.454C422.923 717.932 423.163 717.435 423.468 716.98C424.635 715.297 426.31 714.031 428.247 713.367C431.115 712.617 434.064 712.22 437.028 712.184C440.555 711.772 443.943 710.571 446.942 708.669C448.562 707.746 450.182 706.806 451.899 706.045C453.498 705.315 455.164 704.74 456.873 704.327C459.757 703.654 462.707 703.3 465.669 703.274C468.196 703.274 470.221 703.274 471.631 703.372C472.38 703.366 473.129 703.432 473.866 703.566Z" fill="#EB996E"/>
<path d="M465.053 691.27C464.886 691.381 464.706 691.473 464.519 691.546C464.179 691.708 463.644 691.918 462.899 692.161C460.911 692.774 458.88 693.239 456.824 693.554C454.248 694.008 451.138 694.348 447.833 695.174C444.272 696.251 440.851 697.746 437.643 699.629C431.665 702.956 425.423 705.784 418.981 708.086C416.518 708.961 414.493 709.609 413.084 710.03C412.369 710.289 411.631 710.478 410.881 710.597C411.552 710.237 412.258 709.944 412.987 709.722L418.77 707.519C425.119 705.072 431.289 702.187 437.238 698.884C440.507 696.969 444 695.468 447.638 694.413C450.642 693.734 453.682 693.226 456.743 692.89C458.782 692.632 460.805 692.259 462.802 691.772C463.542 691.563 464.294 691.396 465.053 691.27Z" fill="#EB996E"/>
<path d="M488.722 698.22C488.507 697.587 488.35 696.937 488.252 696.276C487.865 694.761 487.118 693.362 486.074 692.197C485.031 691.032 483.722 690.136 482.258 689.585C481.613 689.412 480.985 689.184 480.379 688.905C480.379 688.808 481.189 688.711 482.452 689.018C484.094 689.46 485.573 690.366 486.713 691.627C487.844 692.895 488.582 694.466 488.835 696.146C489.005 696.834 488.965 697.556 488.722 698.22Z" fill="#EB996E"/>
<path d="M502.2 716.412C502.17 715.501 502.089 714.593 501.957 713.691C501.405 711.585 500.161 709.725 498.426 708.41C496.639 707.112 494.668 706.091 492.577 705.38C491.668 705.14 490.795 704.774 489.985 704.295C490.932 704.308 491.869 704.483 492.756 704.813C494.991 705.388 497.097 706.383 498.96 707.746C500.85 709.172 502.129 711.262 502.54 713.594C502.775 714.543 502.654 715.546 502.2 716.412Z" fill="#EB996E"/>
<path d="M422.723 719.005C422.311 719.372 421.832 719.658 421.314 719.847C419.96 720.485 418.564 721.026 417.134 721.467C416.15 721.811 415.143 722.087 414.121 722.293C412.888 722.456 411.634 722.328 410.46 721.921C409.796 721.678 409.191 721.299 408.683 720.807C408.175 720.316 407.776 719.724 407.511 719.069C406.841 717.738 406.571 716.242 406.734 714.76C406.902 713.642 407.479 712.626 408.354 711.909C409.099 711.254 409.933 710.708 410.832 710.289L410.622 710.775C409.962 708.767 410.113 706.582 411.043 704.684C411.814 703.261 412.854 702.001 414.105 700.974C414.907 700.305 415.763 699.704 416.664 699.176C416.974 698.953 417.319 698.783 417.685 698.674C417.766 698.787 416.373 699.597 414.445 701.347C413.307 702.386 412.363 703.621 411.658 704.992C410.86 706.741 410.767 708.732 411.399 710.548L411.496 710.856L411.189 711.018C409.666 711.812 407.835 712.978 407.657 714.89C407.522 716.208 407.757 717.538 408.337 718.729C408.552 719.289 408.882 719.798 409.307 720.222C409.731 720.647 410.24 720.977 410.8 721.192C411.835 721.571 412.942 721.715 414.04 721.613C415.034 721.434 416.019 721.201 416.988 720.916C418.786 720.414 420.228 719.912 421.2 719.555C421.687 719.319 422.197 719.134 422.723 719.005Z" fill="#EB996E"/>
<path d="M548.241 391.295C544.725 356.206 537.289 321.278 538.828 285.995L509.976 304.009C511.418 317.974 498.863 328.795 491.589 340.783C487.236 348.107 484.683 356.359 484.139 364.861C483.596 373.363 485.077 381.873 488.462 389.691C491.054 395.523 494.732 401.031 495.688 407.349C497.308 418.009 490.714 428.846 493.144 439.36C495.931 451.462 510.737 458.104 522.677 454.702C534.616 451.3 543.17 440.122 546.685 428.279C550.201 416.437 549.472 403.655 548.241 391.295Z" fill="#263238"/>
<path d="M511.531 298.08C513.128 289.518 516.972 281.535 522.669 274.948C528.367 268.361 535.714 263.408 543.957 260.595C552.199 257.783 561.041 257.213 569.577 258.943C578.113 260.673 586.035 264.642 592.531 270.443C597.796 275.157 602.106 281.038 608.197 284.618C615.082 288.652 615.973 287.291 623.554 289.737C631.136 292.183 645.991 311.98 646.234 319.95L652.131 354.618C652.326 362.799 642.12 368.064 634.214 365.958C626.308 363.852 620.736 356.87 616.2 350.033C611.664 343.197 607.354 335.794 600.372 331.501C588.789 324.389 573.918 328.018 560.796 331.501C547.674 334.984 532.429 337.981 521.511 329.881C512.179 322.834 509.393 309.55 511.531 298.08Z" fill="#263238"/>
<path d="M507.352 348.3C507.352 325.49 520.781 296.703 543.559 297.74L615.325 311.348C618.665 311.496 621.828 312.893 624.187 315.264C626.545 317.634 627.927 320.804 628.058 324.146L630.763 495.056H631.249C631.249 495.056 606.317 557.75 558.689 545.989C549.245 543.656 556.227 520.15 553.732 509.846L553.262 509.944C553.165 508.696 553.084 507.546 552.987 506.363C551.593 498.653 551.012 490.818 551.254 482.987C550.265 469.233 549.925 463.547 549.925 463.725C549.925 463.903 520.603 460.647 512.309 423.144C508.194 404.579 507.271 373.653 507.352 348.3Z" fill="#FFBE9D"/>
<path d="M520.02 378.14C520.083 379.407 520.638 380.598 521.568 381.461C522.497 382.323 523.726 382.789 524.994 382.757C525.615 382.77 526.233 382.659 526.81 382.429C527.388 382.199 527.913 381.856 528.356 381.419C528.798 380.983 529.149 380.462 529.387 379.888C529.624 379.313 529.745 378.697 529.74 378.076C529.677 376.809 529.122 375.618 528.193 374.755C527.264 373.893 526.034 373.428 524.767 373.459C524.145 373.446 523.528 373.557 522.95 373.787C522.373 374.017 521.847 374.36 521.404 374.797C520.962 375.233 520.611 375.754 520.374 376.328C520.136 376.903 520.016 377.519 520.02 378.14Z" fill="#263238"/>
<path d="M515.014 363.965C515.646 364.565 519.162 361.616 524.394 361.325C529.627 361.033 533.612 363.398 534.114 362.734C534.39 362.426 533.693 361.325 531.96 360.207C529.602 358.772 526.856 358.104 524.102 358.295C521.41 358.488 518.848 359.525 516.78 361.26C515.16 362.524 514.69 363.706 515.014 363.965Z" fill="#263238"/>
<path d="M567.162 375.5C567.225 376.766 567.781 377.957 568.71 378.82C569.639 379.683 570.868 380.148 572.136 380.117C572.757 380.13 573.375 380.018 573.952 379.788C574.53 379.558 575.055 379.215 575.498 378.779C575.94 378.342 576.291 377.821 576.529 377.247C576.766 376.673 576.887 376.057 576.882 375.435C576.819 374.16 576.257 372.961 575.317 372.097C574.378 371.233 573.136 370.774 571.86 370.818C571.243 370.812 570.63 370.928 570.058 371.161C569.487 371.394 568.967 371.738 568.53 372.174C568.092 372.61 567.746 373.128 567.511 373.699C567.277 374.27 567.158 374.882 567.162 375.5Z" fill="#263238"/>
<path d="M566.449 361.859C567.081 362.443 570.597 359.51 575.829 359.203C581.062 358.895 585.047 361.292 585.549 360.612C585.808 360.304 585.144 359.203 583.395 358.085C581.034 356.657 578.291 355.989 575.538 356.173C572.821 356.337 570.225 357.351 568.118 359.073C566.611 360.401 566.125 361.584 566.449 361.859Z" fill="#263238"/>
<path d="M549.812 401.76C549.812 401.452 546.572 401.096 541.226 400.739C539.881 400.739 538.602 400.48 538.326 399.589C538.13 398.215 538.356 396.814 538.974 395.572C540.043 392.332 541.145 388.816 542.311 385.187C546.928 370.381 550.168 358.247 549.569 358.069C548.97 357.89 544.709 369.733 540.141 384.523L536.982 394.988C536.234 396.643 536.101 398.51 536.609 400.253C536.829 400.716 537.152 401.121 537.554 401.439C537.956 401.756 538.425 401.977 538.926 402.084C539.676 402.241 540.444 402.301 541.21 402.262C546.523 402.23 549.812 402.052 549.812 401.76Z" fill="#263238"/>
<path d="M549.925 463.822C567.771 463.013 585.043 457.271 599.821 447.233C599.821 447.233 588.611 474.368 550.509 473.153L549.925 463.822Z" fill="#EB996E"/>
<path d="M552.776 414.218C553.693 412.905 554.931 411.848 556.371 411.148C557.812 410.447 559.407 410.127 561.006 410.216C562.165 410.245 563.305 410.51 564.358 410.994C565.411 411.479 566.354 412.174 567.13 413.035C567.882 413.863 568.361 414.903 568.503 416.013C568.645 417.122 568.443 418.249 567.923 419.24C567.142 420.229 566.083 420.962 564.883 421.346C563.682 421.73 562.394 421.746 561.184 421.394C558.661 420.67 556.309 419.447 554.267 417.798C553.638 417.421 553.088 416.926 552.647 416.34C552.437 416.064 552.315 415.731 552.295 415.385C552.275 415.039 552.358 414.695 552.533 414.396" fill="#EB996E"/>
<path d="M565.38 404.449C564.521 404.449 564.845 410.119 560.245 414.428C555.644 418.738 549.553 418.495 549.553 419.288C549.553 419.645 550.962 420.309 553.522 420.228C556.848 420.077 560.015 418.758 562.464 416.502C564.813 414.333 566.225 411.335 566.401 408.143C566.514 405.761 565.785 404.384 565.38 404.449Z" fill="#263238"/>
<path d="M563.938 342.047C564.538 343.44 569.722 342.452 575.894 342.824C582.066 343.197 587.137 344.558 587.866 343.229C588.19 342.598 587.25 341.318 585.177 339.989C582.405 338.463 579.321 337.588 576.161 337.43C573 337.273 569.845 337.838 566.935 339.082C564.748 340.2 563.76 341.383 563.938 342.047Z" fill="#263238"/>
<path d="M516.019 348.721C517.007 349.855 520.539 348.413 524.864 348.089C529.189 347.765 532.964 348.413 533.677 347.117C534.017 346.486 533.369 345.335 531.684 344.315C529.454 343.09 526.908 342.56 524.374 342.791C521.84 343.022 519.433 344.004 517.461 345.611C516.003 346.923 515.581 348.17 516.019 348.721Z" fill="#263238"/>
<path d="M544.207 287.987L547.155 283.678C569.185 284.82 590.957 288.951 611.874 295.958C620.233 298.76 628.722 302.211 634.716 308.675C642.978 317.552 645.003 330.383 646.623 342.403C652.812 388.136 658.514 435.294 646.785 479.941C642.962 474.563 635.996 472.473 629.451 471.614C622.906 470.756 616.086 470.788 610.011 468.148C606.712 466.637 603.765 464.453 601.36 461.735C598.955 459.018 597.145 455.827 596.047 452.369C593.883 445.389 594.244 437.871 597.067 431.131C600.129 423.63 605.945 416.21 603.92 408.451C601.798 400.237 591.964 396.074 589.21 388.055C584.464 374.188 603.466 360.288 598.59 346.469C596.776 341.366 592.013 337.867 587.023 335.761C582.034 333.655 576.655 332.635 571.617 330.674C563.24 327.204 556.124 321.255 551.225 313.625C546.325 305.995 543.877 297.049 544.207 287.987Z" fill="#263238"/>
<path d="M656.278 310.586C632.723 277.571 616.767 273.569 594.605 272.338L625.385 341.35C630.002 352.463 636.352 365.942 637.341 377.914C638.507 392.121 633.582 404.012 626.989 416.632C619.083 431.795 610.4 446.245 596.808 456.613C583.216 466.981 552.955 480.022 537.241 473.299L559.159 485.563L611.518 485.757L672.511 486C672.511 486 679.639 479.747 685.908 463.612C701.638 423.193 682.555 347.409 656.278 310.586Z" fill="#7E2ADB"/>
<path d="M699.71 525.625C699.71 525.625 686.588 498.701 669.465 483.894C652.341 469.087 641.828 469.233 617.398 471.307C592.968 473.38 558.787 477.236 550.687 475.178L549.925 463.838C545.908 463.433 529.432 455.414 526.225 450.571C520.101 456.84 517.428 463.531 518.821 470.642L514.82 472.149C508.917 474.309 504.016 478.566 501.052 484.109C498.088 489.651 497.268 496.092 498.749 502.2C500.272 508.032 503.95 511.612 511.337 512.892C540.659 517.963 619.051 496.773 642.654 496.692C666.257 496.611 699.71 525.625 699.71 525.625Z" fill="#7E2ADB"/>
<path d="M508.68 512.584C509.368 512.564 510.056 512.602 510.738 512.698C512.066 512.827 513.978 513.038 516.553 513.216C523.7 513.773 530.874 513.892 538.035 513.572C548.644 513.026 559.189 511.596 569.56 509.296C575.424 508.016 581.532 506.461 587.801 504.646L607.144 498.668C620.412 494.635 633.712 491.881 645.878 493.079C656.597 494.06 666.971 497.377 676.269 502.799C682.512 506.458 688.156 511.053 693.004 516.424C694.321 517.875 695.554 519.4 696.697 520.992C697.121 521.502 697.506 522.044 697.848 522.612C697.337 522.159 696.88 521.648 696.487 521.089C695.661 520.036 694.348 518.562 692.615 516.715C680.253 503.767 663.599 495.762 645.765 494.197C633.841 493.096 620.752 495.817 607.533 499.835C600.907 501.827 594.475 503.95 588.174 505.78C581.872 507.611 575.732 509.134 569.819 510.381C559.373 512.648 548.748 513.992 538.067 514.399C530.87 514.639 523.665 514.374 516.505 513.605C513.978 513.346 512.017 513.054 510.705 512.843C510.024 512.815 509.346 512.729 508.68 512.584Z" fill="#263238"/>
<path d="M701.12 516.78C671.539 478.321 614.823 463.628 570.273 482.873L523.293 492.836C510.9 494.975 491.022 499.009 490.083 510.494C489.225 522.659 491.873 534.814 497.713 545.519C508.632 564.538 502.702 590.02 513.621 609.039C518.773 618.03 524.038 627.151 531.555 634.295C539.071 641.439 549.277 646.445 559.581 645.327C571.05 644.096 580.446 635.72 587.736 626.778C603.434 607.516 613.235 584.123 627.928 564.1C642.622 544.077 659.956 529.335 690.833 527.44C696.438 527.083 712.428 534.551 712.428 534.551C712.881 532.283 702.529 518.578 701.12 516.78Z" fill="#7E2ADB"/>
<g opacity="0.3">
<path opacity="0.3" d="M637.891 493.906C617.463 493.906 597.391 503.723 577.595 508.097C497.956 525.625 497.956 495.59 497.956 495.59C495.461 509.701 508.713 516.181 522.661 519.421C549.294 525.577 577.741 528.881 596.954 522.742C612.441 517.882 628.609 514.269 644.242 509.782C659.875 505.294 682.393 507.011 694.235 518.125C683.64 500.71 658.32 493.857 637.891 493.906Z" fill="#646464"/>
</g>
<g opacity="0.3">
<path opacity="0.3" d="M534.39 491.751C535.341 493.837 536.731 495.694 538.464 497.195C540.197 498.696 542.233 499.806 544.434 500.45C548.845 501.722 553.462 502.118 558.025 501.617C574.679 500.483 590.685 494.926 606.447 489.418C593.844 488.981 581.645 493.371 569.284 495.898C556.924 498.425 542.992 498.587 532.948 491.038" fill="#646464"/>
</g>
<path d="M705.121 529.108C705.121 529.108 704.976 528.995 704.749 528.752L703.761 527.618C702.902 526.597 701.59 525.172 699.856 523.357C694.976 518.225 689.078 514.17 682.539 511.45C677.975 509.728 673.182 508.691 668.315 508.372C662.734 507.92 657.121 508.099 651.58 508.907C639.819 510.527 627.394 514.658 614.207 518.416C601.02 522.175 588.433 526.095 576.461 526.727C565.906 527.182 555.334 526.426 544.952 524.475C536.107 522.855 529.06 520.976 524.183 519.761L518.578 518.335L517.136 517.946L516.634 517.784C516.806 517.759 516.981 517.759 517.153 517.784L518.627 518.092L524.264 519.372C529.124 520.49 536.22 522.256 545.065 523.811C555.403 525.678 565.919 526.373 576.412 525.884C588.255 525.22 600.858 521.478 613.98 517.541C627.102 513.605 639.609 509.636 651.467 508.064C657.069 507.274 662.743 507.122 668.38 507.611C674.424 507.958 680.34 509.503 685.782 512.157C691.225 514.81 696.086 518.518 700.083 523.066C701.8 524.929 703.08 526.387 703.89 527.44L704.814 528.622L705.121 529.108Z" fill="#646464"/>
<path d="M675.378 489.483C675.256 489.403 675.142 489.311 675.038 489.208L674.098 488.349C673.304 487.571 672.057 486.486 670.437 485.109C665.771 481.338 660.656 478.16 655.209 475.648C647.124 471.944 638.529 469.476 629.71 468.326C618.901 466.984 607.966 467.011 597.164 468.407C586.352 469.836 575.624 471.837 565.024 474.401C560.34 475.501 555.517 475.883 550.719 475.535C546.5 475.219 542.448 473.751 539.006 471.29C536.245 469.193 533.885 466.614 532.04 463.676C530.649 461.485 529.441 459.182 528.428 456.791C527.602 454.831 527.051 453.26 526.694 452.191L526.322 450.976C526.268 450.841 526.235 450.699 526.225 450.554C526.225 450.554 526.306 450.684 526.403 450.943C526.5 451.202 526.678 451.656 526.856 452.142C527.261 453.179 527.861 454.718 528.736 456.662C529.793 459.007 531.034 461.266 532.445 463.417C534.291 466.273 536.634 468.775 539.363 470.804C542.738 473.162 546.692 474.557 550.8 474.838C555.521 475.145 560.261 474.741 564.862 473.639C575.476 471.022 586.228 468.999 597.067 467.581C607.941 466.178 618.95 466.178 629.824 467.581C638.706 468.785 647.354 471.336 655.468 475.146C660.932 477.707 666.035 480.975 670.648 484.866C671.898 485.927 673.093 487.052 674.228 488.236L675.103 489.143C675.297 489.37 675.394 489.467 675.378 489.483Z" fill="#646464"/>
<path d="M665.82 488.689H665.415L664.216 488.495L659.599 487.733C653.941 486.862 648.242 486.284 642.524 486C634.038 485.582 625.533 485.853 617.09 486.81C606.762 488.196 596.527 490.203 586.44 492.82C575.683 495.412 565.218 497.68 555.514 497.534C550.934 497.563 546.368 497.019 541.922 495.914C538.046 494.818 534.461 492.876 531.425 490.228C527.069 486.421 523.53 481.77 521.024 476.555C520.071 474.668 519.317 472.686 518.773 470.642C518.85 470.757 518.91 470.883 518.951 471.015L519.388 472.149C519.793 473.153 520.409 474.595 521.316 476.393C523.906 481.498 527.473 486.044 531.814 489.775C534.804 492.323 538.315 494.186 542.101 495.234C546.491 496.302 550.996 496.819 555.514 496.773C565.105 496.773 575.489 494.618 586.294 492.01C596.419 489.373 606.699 487.371 617.074 486.016C625.558 485.103 634.103 484.891 642.622 485.384C648.358 485.718 654.07 486.383 659.729 487.377C661.737 487.75 663.276 488.057 664.329 488.3L665.512 488.576C665.706 488.624 665.82 488.673 665.82 488.689Z" fill="#646464"/>
<path d="M667.31 415.984C667.166 416.903 666.96 417.813 666.695 418.705C666.442 419.77 666.128 420.819 665.755 421.848C665.334 423.063 664.929 424.456 664.281 425.93C663.633 427.405 663.001 429.057 662.143 430.79C661.284 432.524 660.328 434.257 659.275 436.12C654.545 444.083 648.389 451.107 641.115 456.84C639.414 458.136 637.875 459.383 636.255 460.388C634.635 461.392 633.177 462.348 631.768 463.142C630.358 463.936 629.062 464.584 627.928 465.151C626.957 465.659 625.957 466.108 624.931 466.495C624.087 466.884 623.215 467.209 622.323 467.467C623.114 466.98 623.943 466.557 624.802 466.204C625.612 465.831 626.6 465.361 627.718 464.729C628.835 464.098 630.131 463.498 631.476 462.623C632.821 461.749 634.343 460.906 635.866 459.805C637.389 458.703 638.993 457.52 640.726 456.241C647.862 450.483 653.945 443.533 658.708 435.699C659.761 433.868 660.798 432.151 661.608 430.466C662.418 428.782 663.228 427.226 663.827 425.736C664.427 424.246 664.945 422.917 665.447 421.735C665.95 420.552 666.241 419.499 666.5 418.657C666.694 417.744 666.965 416.85 667.31 415.984Z" fill="#646464"/>
<path d="M664.864 512.552C664.424 512.551 663.985 512.513 663.552 512.438L661.932 512.228C661.316 512.147 660.587 512.228 659.794 512.114C655.212 512.004 650.648 512.712 646.315 514.204C643.328 515.23 640.42 516.475 637.616 517.93C634.404 519.622 631.284 521.483 628.268 523.503C621.886 527.764 615.211 532.98 608.051 538.245L571.504 565.38L560.342 573.48L557.28 575.586C556.939 575.862 556.57 576.101 556.178 576.299C556.487 575.995 556.818 575.713 557.167 575.456L560.131 573.156L571.131 564.813L607.581 537.565C614.741 532.316 621.416 527.099 627.88 522.855C630.926 520.835 634.079 518.98 637.324 517.298C640.178 515.861 643.135 514.637 646.169 513.637C650.573 512.179 655.21 511.553 659.842 511.79C660.652 511.79 661.381 511.871 661.997 511.969L663.617 512.26C664.04 512.32 664.458 512.418 664.864 512.552Z" fill="#646464"/>
<path d="M717.142 562.221C716.828 561.486 716.589 560.72 716.429 559.937C716.04 558.463 715.489 556.308 714.712 553.684C713.837 550.606 712.727 547.6 711.391 544.693C709.767 541.155 707.547 537.922 704.83 535.135C702.126 532.338 698.744 530.289 695.013 529.189C691.942 528.367 688.751 528.087 685.584 528.363C682.653 528.692 679.743 529.19 676.869 529.853C677.043 529.738 677.234 529.65 677.436 529.594C677.824 529.448 678.391 529.254 679.056 529.043C681.17 528.416 683.34 527.993 685.536 527.78C688.789 527.4 692.084 527.625 695.256 528.444C699.134 529.542 702.654 531.643 705.462 534.535C708.251 537.392 710.511 540.721 712.136 544.369C713.464 547.326 714.547 550.387 715.376 553.522C716.072 556.178 716.542 558.382 716.834 559.872C717.004 560.645 717.107 561.431 717.142 562.221Z" fill="#646464"/>
<path d="M688.402 259.868C720.255 258.389 744.877 231.367 743.397 199.514C741.918 167.662 714.896 143.039 683.043 144.519C651.19 145.999 626.568 173.021 628.048 204.873C629.528 236.726 656.55 261.348 688.402 259.868Z" fill="white"/>
<path d="M653.605 268.92C654.139 268.77 654.679 268.645 655.225 268.547C656.784 268.354 658.365 268.654 659.745 269.406C660.695 269.9 661.524 270.597 662.175 271.447C662.897 272.436 663.319 273.611 663.39 274.833C663.542 276.238 663.26 277.656 662.581 278.896C661.903 280.136 660.861 281.139 659.596 281.769C658.33 282.399 656.903 282.626 655.504 282.42C654.106 282.214 652.804 281.585 651.774 280.616C650.847 279.823 650.161 278.785 649.798 277.619C649.499 276.566 649.438 275.459 649.62 274.379C649.858 272.825 650.571 271.382 651.661 270.248C652.439 269.455 653.006 269.179 652.973 269.131C652.829 269.175 652.693 269.24 652.568 269.325C652.404 269.409 652.247 269.507 652.098 269.617C651.895 269.767 651.7 269.93 651.515 270.103C650.516 271.058 649.791 272.263 649.415 273.594C649.038 274.924 649.025 276.331 649.377 277.668C649.736 278.928 650.457 280.054 651.45 280.908C652.533 281.87 653.863 282.509 655.29 282.755C656.826 283.079 658.427 282.874 659.833 282.175C661.238 281.475 662.366 280.321 663.034 278.899C663.693 277.61 663.984 276.164 663.876 274.72C663.788 273.41 663.321 272.155 662.531 271.107C661.84 270.205 660.947 269.478 659.923 268.985C658.468 268.233 656.807 267.977 655.193 268.256C654.945 268.292 654.701 268.352 654.464 268.434C654.279 268.481 654.1 268.546 653.929 268.628C653.735 268.807 653.589 268.92 653.605 268.92Z" fill="#263238"/>
<path d="M637.648 235.046L637.178 234.22L635.753 231.854C635.445 231.32 635.088 230.737 634.7 230.105C634.311 229.473 634.019 228.695 633.63 227.885C633.242 227.075 632.837 226.265 632.399 225.293C632.161 224.824 631.96 224.337 631.8 223.835C631.622 223.317 631.427 222.799 631.233 222.215C629.271 216.961 628.118 211.438 627.815 205.837C627.367 198.419 628.345 190.984 630.698 183.935L631.719 180.986C632.124 179.998 632.594 179.042 633.031 178.054C633.242 177.568 633.468 177.082 633.695 176.58C633.901 176.073 634.151 175.586 634.44 175.122L636.06 172.222C636.336 171.736 636.611 171.25 636.903 170.764L637.907 169.371L639.932 166.552C640.629 165.629 641.455 164.77 642.233 163.863L643.415 162.518C643.61 162.308 643.804 162.065 644.015 161.854L644.679 161.239C646.417 159.493 648.274 157.869 650.235 156.379C651.24 155.65 652.212 154.759 653.281 154.127L656.521 152.134C657.072 151.81 657.606 151.438 658.141 151.146L659.907 150.304C661.089 149.753 662.256 149.137 663.471 148.684C665.969 147.69 668.529 146.857 671.133 146.189L673.11 145.687L674.114 145.444L675.135 145.298L679.233 144.682C680.627 144.536 682.02 144.504 683.429 144.423C684.126 144.423 684.839 144.31 685.551 144.423L687.674 144.52C690.547 144.625 693.41 144.923 696.243 145.411L700.504 146.432L701.573 146.691C701.93 146.788 702.27 146.918 702.626 147.031L704.716 147.76L706.822 148.473L708.863 149.38L710.904 150.32L711.925 150.773C712.265 150.952 712.573 151.146 712.913 151.34L716.834 153.592L720.56 156.249C730.558 163.742 737.839 174.293 741.296 186.3C741.684 187.774 742.057 189.265 742.43 190.723L743.11 195.21L743.272 196.328V197.446L743.385 199.681L743.499 201.917L743.402 204.136L743.304 206.356V207.457L743.159 208.543C742.948 210.001 742.754 211.442 742.559 212.884C741.985 215.708 741.222 218.49 740.275 221.211L739.595 223.22C739.368 223.9 739.028 224.516 738.752 225.164C738.153 226.444 737.634 227.74 736.986 228.971C736.338 230.202 735.609 231.385 734.929 232.583L734.411 233.474C734.216 233.766 734.006 234.041 733.811 234.317L732.629 235.937C731.065 238.119 729.36 240.197 727.526 242.158C726.602 243.113 725.614 243.972 724.674 244.879L723.233 246.208C722.763 246.645 722.212 247.018 721.71 247.406L718.664 249.739C717.627 250.468 716.51 251.084 715.424 251.748C713.347 253.043 711.182 254.19 708.944 255.182L708.134 255.571L707.292 255.895L705.672 256.495C704.538 256.883 703.452 257.353 702.335 257.677L698.965 258.536L697.345 258.957L695.725 259.216L692.485 259.718C691.95 259.812 691.408 259.867 690.865 259.88H689.245C688.176 259.88 687.107 260.026 686.005 260.042L682.878 259.913C675.456 259.548 668.173 257.754 661.43 254.632C660.684 254.291 659.939 253.984 659.226 253.643L657.218 252.477L655.274 251.375C654.95 251.181 654.626 251.019 654.334 250.825L653.475 250.209L650.235 247.876C649.215 247.099 648.34 246.256 647.449 245.511L646.185 244.409C645.779 244.072 645.395 243.71 645.035 243.324L642.848 241.38C642.249 240.732 641.666 240.149 641.228 239.582L639.981 237.962L638.361 235.775C637.988 235.289 637.778 235.046 637.778 235.046L638.328 235.807C638.701 236.326 639.252 237.055 639.948 238.027L641.163 239.647C641.649 240.23 642.233 240.813 642.783 241.461L644.727 243.583C645.083 243.979 645.467 244.347 645.878 244.685L647.141 245.803C648.016 246.548 648.891 247.423 649.911 248.184L653.151 250.549L654.01 251.165C654.318 251.375 654.642 251.537 654.95 251.732L656.894 252.85L658.919 254.032L661.122 255.037C667.894 258.206 675.217 260.033 682.684 260.415L685.827 260.561C686.88 260.561 687.965 260.464 689.067 260.415L690.687 260.318C691.23 260.316 691.772 260.267 692.307 260.172L695.628 259.67L697.248 259.411L698.868 258.989L702.27 258.131C703.388 257.807 704.489 257.353 705.623 256.964L707.324 256.349C707.6 256.235 707.891 256.154 708.167 256.025L708.993 255.636C711.267 254.637 713.47 253.484 715.586 252.185C716.655 251.521 717.773 250.906 718.826 250.177L721.904 247.828C722.423 247.423 722.957 247.066 723.524 246.629L724.966 245.284C725.906 244.377 726.926 243.502 727.85 242.546C729.7 240.57 731.421 238.476 733.001 236.277C733.39 235.71 733.795 235.159 734.2 234.657C734.394 234.382 734.605 234.106 734.799 233.815L735.318 232.907L737.408 229.279C738.056 228.031 738.59 226.719 739.19 225.439C739.465 224.775 739.821 224.143 740.048 223.479L740.729 221.438C741.688 218.697 742.457 215.893 743.029 213.046C743.24 211.604 743.45 210.13 743.645 208.672L743.807 207.571V206.453L743.904 204.233L744.001 201.982L743.888 199.73L743.758 197.478V196.328L743.58 195.21L742.899 190.69C742.527 189.2 742.154 187.709 741.765 186.219C738.347 174.071 731.04 163.378 720.965 155.779L717.206 153.09L713.237 150.822C712.913 150.628 712.589 150.433 712.249 150.255L711.212 149.785L709.155 148.846L707.097 147.938L704.975 147.209L702.853 146.48L701.8 146.124L700.715 145.881C699.289 145.525 697.847 145.184 696.422 144.86C693.562 144.359 690.672 144.056 687.771 143.953L685.632 143.856C684.92 143.856 684.207 143.856 683.494 143.856C682.068 143.953 680.659 143.969 679.266 144.115L675.119 144.747L674.098 144.909C673.758 144.909 673.418 145.071 673.094 145.152L671.085 145.67C668.461 146.334 665.885 147.173 663.374 148.181C662.142 148.7 660.96 149.332 659.761 149.882L657.995 150.741C657.412 151.033 656.877 151.405 656.375 151.745L653.135 153.754C652.066 154.467 651.078 155.293 650.073 156.038C648.096 157.529 646.224 159.152 644.468 160.898L643.804 161.53C643.593 161.741 643.399 161.984 643.205 162.211C643.01 162.437 642.411 163.118 642.006 163.555C641.228 164.479 640.386 165.337 639.705 166.261L637.664 169.112L636.66 170.521C636.368 171.007 636.093 171.509 635.817 171.995L634.197 174.911C633.916 175.383 633.672 175.876 633.468 176.386L632.788 177.876C632.351 178.864 631.881 179.836 631.492 180.824C631.103 181.813 630.812 182.817 630.471 183.805C628.121 190.899 627.164 198.38 627.653 205.837C627.976 211.466 629.162 217.011 631.168 222.28L631.751 223.9C631.912 224.402 632.112 224.889 632.351 225.358L633.614 227.95C634.019 228.744 634.343 229.489 634.716 230.153L635.785 231.887L637.259 234.236C637.454 234.77 637.648 235.046 637.648 235.046Z" fill="#263238"/>
<path d="M656.57 203.65L665.123 195.097L681.615 209.758L713.983 178.605L721.921 187.159L680.4 226.249L656.57 203.65Z" fill="#7E2ADB"/>
</svg>
