<svg width="915" height="668" viewBox="0 0 915 668" fill="none" xmlns="http://www.w3.org/2000/svg">
<g clip-path="url(#clip0_103_3)">
<path d="M202.756 66.9143H144.404C138.795 66.9195 133.416 69.2307 129.449 73.3403C125.482 77.45 123.252 83.0225 123.247 88.8344V154.376C122.501 154.33 121.754 154.26 121.019 154.168C107.195 152.661 94.0527 147.183 83.0729 138.352C72.0931 129.521 63.7131 117.688 58.8774 104.186C54.0418 90.6846 52.943 76.052 55.7048 61.9381C58.4667 47.8243 64.9794 34.7904 74.5086 24.3061C84.0379 13.8217 96.2048 6.30388 109.637 2.60013C123.07 -1.10362 137.234 -0.845989 150.533 3.344C163.832 7.53399 175.737 15.4897 184.905 26.3141C194.073 37.1386 200.14 50.4013 202.422 64.6069C202.544 65.3683 202.656 66.1413 202.756 66.9143Z" fill="#F2F2F2"/>
<path d="M891.615 64.6069H144.405C138.204 64.614 132.26 67.1688 127.876 71.7108C123.492 76.2528 121.026 82.4111 121.019 88.8345V497.242C121.026 503.666 123.492 509.824 127.876 514.366C132.26 518.908 138.204 521.463 144.405 521.47H891.615C897.815 521.463 903.759 518.908 908.143 514.366C912.527 509.824 914.993 503.666 915 497.242V88.8345C914.993 82.4111 912.527 76.2528 908.143 71.7108C903.759 67.1688 897.815 64.614 891.615 64.6069ZM912.773 497.242C912.768 503.054 910.537 508.627 906.57 512.736C902.603 516.846 897.225 519.157 891.615 519.163H144.405C138.795 519.157 133.416 516.846 129.449 512.736C125.482 508.627 123.252 503.054 123.247 497.242V88.8345C123.252 83.0225 125.482 77.4501 129.449 73.3404C133.416 69.2307 138.795 66.9196 144.405 66.9143H891.615C897.225 66.9196 902.603 69.2307 906.57 73.3404C910.537 77.4501 912.768 83.0225 912.773 88.8345V497.242Z" fill="white"/>
<path d="M854.867 130.794H181.153C180.857 130.794 180.574 130.672 180.365 130.456C180.156 130.24 180.039 129.946 180.039 129.64C180.039 129.334 180.156 129.041 180.365 128.824C180.574 128.608 180.857 128.486 181.153 128.486H854.867C855.162 128.486 855.445 128.608 855.654 128.824C855.863 129.041 855.98 129.334 855.98 129.64C855.98 129.946 855.863 130.24 855.654 130.456C855.445 130.672 855.162 130.794 854.867 130.794Z" fill="white"/>
<path d="M371.574 471.861C371.279 471.861 370.996 471.739 370.787 471.523C370.578 471.307 370.461 471.013 370.461 470.707V91.1419C370.461 90.8359 370.578 90.5424 370.787 90.3261C370.996 90.1097 371.279 89.9882 371.574 89.9882C371.87 89.9882 372.153 90.1097 372.362 90.3261C372.57 90.5424 372.688 90.8359 372.688 91.1419V470.707C372.688 471.013 372.57 471.307 372.362 471.523C372.153 471.739 371.87 471.861 371.574 471.861V471.861Z" fill="white"/>
<path d="M539.724 471.861C539.429 471.861 539.146 471.739 538.937 471.523C538.728 471.307 538.611 471.013 538.611 470.707V91.1419C538.611 90.8359 538.728 90.5424 538.937 90.3261C539.146 90.1097 539.429 89.9882 539.724 89.9882C540.02 89.9882 540.303 90.1097 540.512 90.3261C540.721 90.5424 540.838 90.8359 540.838 91.1419V470.707C540.838 471.013 540.721 471.307 540.512 471.523C540.303 471.739 540.02 471.861 539.724 471.861V471.861Z" fill="white"/>
<path d="M707.875 471.861C707.579 471.861 707.296 471.739 707.087 471.523C706.878 471.307 706.761 471.013 706.761 470.707V91.1419C706.761 90.8359 706.878 90.5424 707.087 90.3261C707.296 90.1097 707.579 89.9882 707.875 89.9882C708.17 89.9882 708.453 90.1097 708.662 90.3261C708.871 90.5424 708.988 90.8359 708.988 91.1419V470.707C708.988 471.013 708.871 471.307 708.662 471.523C708.453 471.739 708.17 471.861 707.875 471.861Z" fill="white"/>
<path d="M263.463 249.876H222.773C221.445 249.874 220.171 249.327 219.232 248.353C218.292 247.38 217.764 246.06 217.762 244.684V194.937C217.764 193.561 218.292 192.241 219.232 191.268C220.171 190.295 221.445 189.747 222.773 189.746H263.463C264.792 189.747 266.066 190.295 267.005 191.268C267.945 192.241 268.473 193.561 268.475 194.937V244.684C268.473 246.061 267.945 247.38 267.005 248.353C266.066 249.327 264.792 249.874 263.463 249.876V249.876Z" fill="#861BF7"/>
<path d="M321.369 391.78H280.679C279.351 391.778 278.077 391.231 277.138 390.258C276.198 389.284 275.67 387.965 275.668 386.588V336.842C275.67 335.465 276.198 334.145 277.138 333.172C278.077 332.199 279.351 331.651 280.679 331.65H321.369C322.698 331.651 323.972 332.199 324.911 333.172C325.851 334.145 326.379 335.465 326.381 336.842V386.588C326.379 387.965 325.851 389.284 324.911 390.258C323.972 391.231 322.698 391.778 321.369 391.78V391.78Z" fill="#861BF7"/>
<path d="M452.772 279.872H412.082C410.753 279.87 409.479 279.323 408.54 278.349C407.6 277.376 407.072 276.056 407.07 274.68V224.933C407.072 223.557 407.6 222.237 408.54 221.264C409.479 220.291 410.753 219.743 412.082 219.742H452.772C454.1 219.743 455.374 220.291 456.313 221.264C457.253 222.237 457.781 223.557 457.783 224.933V274.68C457.781 276.056 457.253 277.376 456.313 278.349C455.374 279.323 454.1 279.87 452.772 279.872V279.872Z" fill="#861BF7"/>
<path d="M623.149 225.648H582.459C581.13 225.646 579.857 225.099 578.917 224.126C577.978 223.152 577.449 221.833 577.448 220.456V170.71C577.449 169.333 577.978 168.014 578.917 167.04C579.857 166.067 581.13 165.519 582.459 165.518H623.149C624.478 165.519 625.751 166.067 626.691 167.04C627.63 168.014 628.159 169.333 628.16 170.71V220.456C628.159 221.833 627.63 223.152 626.691 224.126C625.751 225.099 624.477 225.646 623.149 225.648V225.648Z" fill="#861BF7"/>
<path d="M780.163 225.648H739.473C738.145 225.646 736.871 225.099 735.931 224.126C734.992 223.152 734.464 221.833 734.462 220.456V170.71C734.464 169.333 734.992 168.014 735.931 167.04C736.871 166.067 738.145 165.519 739.473 165.518H780.163C781.492 165.519 782.766 166.067 783.705 167.04C784.644 168.014 785.173 169.333 785.174 170.71V220.456C785.173 221.833 784.644 223.152 783.705 224.126C782.766 225.099 781.492 225.646 780.163 225.648V225.648Z" fill="#861BF7"/>
<path d="M852.546 239.492H811.856C810.527 239.491 809.253 238.943 808.314 237.97C807.375 236.997 806.846 235.677 806.845 234.301V184.554C806.846 183.177 807.375 181.858 808.314 180.885C809.253 179.911 810.527 179.364 811.856 179.362H852.546C853.874 179.364 855.148 179.911 856.088 180.885C857.027 181.858 857.555 183.177 857.557 184.554V234.301C857.555 235.677 857.027 236.997 856.088 237.97C855.148 238.943 853.874 239.491 852.546 239.492Z" fill="#E8E8E8" fill-opacity="0.85"/>
<path d="M820.252 328.327H779.562C778.234 328.325 776.96 327.778 776.02 326.805C775.081 325.831 774.553 324.512 774.551 323.135V273.388C774.553 272.012 775.081 270.692 776.02 269.719C776.96 268.746 778.234 268.198 779.562 268.197H820.252C821.581 268.198 822.855 268.746 823.794 269.719C824.733 270.692 825.262 272.012 825.263 273.388V323.135C825.262 324.512 824.733 325.831 823.794 326.805C822.855 327.778 821.581 328.325 820.252 328.327Z" fill="#E8E8E8" fill-opacity="0.85"/>
<path d="M682.169 309.868H641.479C640.15 309.866 638.876 309.319 637.937 308.345C636.997 307.372 636.469 306.053 636.467 304.676V254.929C636.469 253.553 636.997 252.233 637.937 251.26C638.876 250.287 640.15 249.739 641.479 249.738H682.169C683.497 249.739 684.771 250.287 685.71 251.26C686.65 252.233 687.178 253.553 687.18 254.929V304.676C687.178 306.053 686.65 307.372 685.71 308.346C684.771 309.319 683.497 309.866 682.169 309.868Z" fill="#FF6584"/>
<path d="M603.105 328.327H562.415C561.086 328.325 559.812 327.778 558.873 326.805C557.933 325.831 557.405 324.512 557.403 323.135V273.388C557.405 272.012 557.933 270.692 558.873 269.719C559.812 268.746 561.086 268.198 562.415 268.197H603.105C604.433 268.198 605.707 268.746 606.646 269.719C607.586 270.692 608.114 272.012 608.116 273.388V323.135C608.114 324.512 607.586 325.831 606.646 326.805C605.707 327.778 604.433 328.325 603.105 328.327V328.327Z" fill="#E8E8E8" fill-opacity="0.85"/>
<path d="M432.727 406.778H392.037C390.709 406.776 389.435 406.229 388.495 405.256C387.556 404.282 387.027 402.963 387.026 401.586V351.84C387.027 350.463 387.556 349.144 388.495 348.17C389.435 347.197 390.709 346.65 392.037 346.648H432.727C434.056 346.65 435.329 347.197 436.269 348.17C437.208 349.144 437.737 350.463 437.738 351.84V401.586C437.737 402.963 437.208 404.282 436.269 405.256C435.329 406.229 434.056 406.776 432.727 406.778Z" fill="#E8E8E8" fill-opacity="0.85"/>
<path d="M226.715 341.018H186.025C184.697 341.016 183.423 340.469 182.484 339.495C181.544 338.522 181.016 337.202 181.014 335.826V286.079C181.016 284.703 181.544 283.383 182.484 282.41C183.423 281.436 184.697 280.889 186.025 280.887H226.715C228.044 280.889 229.318 281.436 230.257 282.41C231.197 283.383 231.725 284.703 231.726 286.079V335.826C231.725 337.202 231.197 338.522 230.257 339.495C229.318 340.469 228.044 341.016 226.715 341.018V341.018Z" fill="#FF6584"/>
<path d="M341.414 249.876H300.724C299.395 249.874 298.121 249.327 297.182 248.353C296.243 247.38 295.714 246.06 295.713 244.684V194.937C295.714 193.561 296.243 192.241 297.182 191.268C298.121 190.295 299.395 189.747 300.724 189.746H341.414C342.742 189.747 344.016 190.295 344.956 191.268C345.895 192.241 346.423 193.561 346.425 194.937V244.684C346.423 246.061 345.895 247.38 344.956 248.353C344.016 249.327 342.742 249.874 341.414 249.876V249.876Z" fill="#E8E8E8" fill-opacity="0.85"/>
<path d="M308.1 111.908H244.627C243.445 111.908 242.312 111.422 241.477 110.557C240.642 109.691 240.172 108.518 240.172 107.294C240.172 106.07 240.642 104.896 241.477 104.03C242.312 103.165 243.445 102.679 244.627 102.679H308.1C309.282 102.679 310.415 103.165 311.25 104.03C312.085 104.896 312.555 106.07 312.555 107.294C312.555 108.518 312.085 109.691 311.25 110.557C310.415 111.422 309.282 111.908 308.1 111.908Z" fill="#E8E8E8" fill-opacity="0.85"/>
<path d="M487.386 111.908H423.912C422.731 111.908 421.598 111.422 420.763 110.557C419.927 109.691 419.458 108.518 419.458 107.294C419.458 106.07 419.927 104.896 420.763 104.03C421.598 103.165 422.731 102.679 423.912 102.679H487.386C488.568 102.679 489.701 103.165 490.536 104.03C491.371 104.896 491.841 106.07 491.841 107.294C491.841 108.518 491.371 109.691 490.536 110.557C489.701 111.422 488.568 111.908 487.386 111.908Z" fill="#E8E8E8" fill-opacity="0.85"/>
<path d="M655.537 111.908H592.063C590.881 111.908 589.748 111.422 588.913 110.557C588.078 109.691 587.608 108.518 587.608 107.294C587.608 106.07 588.078 104.896 588.913 104.03C589.748 103.165 590.881 102.679 592.063 102.679H655.537C656.718 102.679 657.851 103.165 658.686 104.03C659.522 104.896 659.991 106.07 659.991 107.294C659.991 108.518 659.522 109.691 658.686 110.557C657.851 111.422 656.718 111.908 655.537 111.908Z" fill="#E8E8E8" fill-opacity="0.85"/>
<path d="M812.551 111.908H749.077C747.896 111.908 746.763 111.422 745.927 110.557C745.092 109.691 744.623 108.518 744.623 107.294C744.623 106.07 745.092 104.896 745.927 104.03C746.763 103.165 747.896 102.679 749.077 102.679H812.551C813.732 102.679 814.865 103.165 815.7 104.03C816.536 104.896 817.005 106.07 817.005 107.294C817.005 108.518 816.536 109.691 815.7 110.557C814.865 111.422 813.732 111.908 812.551 111.908Z" fill="#E8E8E8" fill-opacity="0.85"/>
<path d="M165.933 449.815C164.304 449.65 162.73 449.117 161.321 448.253C159.912 447.389 158.703 446.215 157.78 444.815C156.856 443.415 156.24 441.822 155.975 440.148C155.71 438.474 155.802 436.761 156.245 435.128L127.701 407.6L142.793 403.633L170.862 427.219C173.46 428.172 175.63 430.08 176.961 432.58C178.293 435.08 178.692 438 178.085 440.785C177.477 443.57 175.905 446.028 173.665 447.692C171.426 449.357 168.675 450.112 165.933 449.815V449.815Z" fill="#FFB8B8"/>
<path d="M205.348 653.283H219.001L225.495 598.727H205.346L205.348 653.283Z" fill="#FFB8B8"/>
<path d="M245.33 666.415L202.423 666.417L202.422 649.242L228.752 649.241C233.148 649.241 237.365 651.05 240.474 654.271C243.583 657.491 245.33 661.86 245.33 666.415V666.415L245.33 666.415Z" fill="#2F2E41"/>
<path d="M111.742 643.07L124.935 646.709L144.758 595.72L125.287 590.351L111.742 643.07Z" fill="#FFB8B8"/>
<path d="M147.118 666.419L105.655 654.985L109.919 638.388L135.362 645.405C139.611 646.576 143.236 649.448 145.441 653.389C147.646 657.33 148.249 662.017 147.118 666.419V666.419V666.419Z" fill="#2F2E41"/>
<path d="M222.672 642.954H201.84C200.524 642.958 199.254 642.453 198.28 641.536C197.306 640.619 196.699 639.358 196.577 638.001L183.931 501.944C183.838 500.946 183.413 500.012 182.73 499.303C182.046 498.593 181.145 498.152 180.182 498.055C179.219 497.957 178.253 498.21 177.45 498.769C176.646 499.328 176.055 500.158 175.778 501.119L139.06 628.255C138.671 629.607 137.794 630.75 136.612 631.448C135.429 632.146 134.032 632.344 132.712 632L113.333 626.98C112.656 626.805 112.02 626.493 111.461 626.062C110.901 625.631 110.429 625.09 110.072 624.469C109.716 623.849 109.481 623.161 109.382 622.446C109.282 621.731 109.32 621.003 109.494 620.303C109.81 619.022 141.131 492.211 141.405 490.907C148.501 436.721 156.992 422.2 161.553 414.401C161.93 413.755 162.277 413.161 162.59 412.6C162.981 411.898 165.388 404.934 166.914 400.412C167.113 399.676 167.456 398.991 167.923 398.4C168.389 397.809 168.969 397.324 169.626 396.977C188.791 386.822 211.215 393.851 217.631 396.248C218.695 396.636 219.609 397.371 220.235 398.342C239.483 428.421 230.037 603.113 227.948 637.827C227.861 639.216 227.267 640.518 226.287 641.47C225.308 642.422 224.015 642.953 222.672 642.954V642.954Z" fill="#2F2E41"/>
<path d="M168.912 298.328C184.017 298.328 196.263 285.642 196.263 269.992C196.263 254.343 184.017 241.656 168.912 241.656C153.807 241.656 141.562 254.343 141.562 269.992C141.562 285.642 153.807 298.328 168.912 298.328Z" fill="#FFB8B8"/>
<path d="M166.014 405.913L165.818 405.716C165.449 405.347 129.008 368.36 133.724 334.159C135.741 319.531 147.165 310.184 166.761 307.127C173.96 306.019 181.303 307.641 187.441 311.694C193.578 315.747 198.097 321.958 200.168 329.187L219.544 397.814L166.014 405.913Z" fill="#E8E8E8"/>
<path d="M147.363 432.221L121.396 405.489C119.62 403.65 118.331 401.37 117.653 398.866C116.974 396.362 116.929 393.72 117.521 391.192L130.092 338.216C130.468 336.629 131.155 335.138 132.11 333.837C133.065 332.536 134.268 331.451 135.644 330.651C137.019 329.851 138.539 329.351 140.109 329.184C141.678 329.017 143.264 329.185 144.769 329.678C147.636 330.636 150.031 332.712 151.446 335.467C152.861 338.222 153.186 341.44 152.351 344.439L139.117 391.044L160.518 414.852L147.363 432.221Z" fill="#E8E8E8"/>
<path d="M286.64 340.989C285.953 342.528 284.949 343.893 283.698 344.987C282.447 346.082 280.98 346.878 279.4 347.321C277.82 347.765 276.165 347.843 274.552 347.552C272.939 347.261 271.408 346.607 270.065 345.637L235.4 364.251L236.933 348.438L267.664 328.735C269.387 326.506 271.84 325.01 274.557 324.53C277.274 324.05 280.066 324.619 282.405 326.13C284.744 327.64 286.467 329.987 287.248 332.726C288.028 335.464 287.812 338.404 286.64 340.989H286.64Z" fill="#FFB8B8"/>
<path d="M266.28 352.759L232.487 367.888C230.238 368.887 227.778 369.27 225.345 368.999C222.912 368.729 220.586 367.814 218.593 366.344L175.621 334.445C174.339 333.493 173.258 332.278 172.447 330.876C171.636 329.474 171.111 327.915 170.905 326.294C170.699 324.674 170.816 323.026 171.249 321.455C171.683 319.883 172.423 318.42 173.423 317.156C175.347 314.754 178.097 313.221 181.092 312.884C184.087 312.546 187.091 313.43 189.468 315.347L226.315 345.392L255.602 333.653L266.28 352.759Z" fill="#E8E8E8"/>
<path d="M173.446 279.072C176.82 274.692 183.124 274.457 187.759 271.568C193.83 267.783 196.34 259.326 194.383 252.271C192.427 245.216 186.657 239.718 180.042 237.088C173.427 234.459 166.068 234.426 159.089 235.697C148.699 237.59 138.47 242.614 132.134 251.352C125.797 260.089 124.184 272.886 129.927 282.054C132.566 286.268 136.641 289.746 137.695 294.649C139.078 301.086 134.72 307.295 130.051 311.777C124.732 316.884 118.629 321.16 113.969 326.917C109.308 332.673 106.201 340.538 108.327 347.72C110.109 353.738 115.294 358.172 120.979 360.393C126.665 362.613 132.857 362.934 138.931 363.057C144.83 363.177 151.096 363.028 156.065 359.733C161.385 356.205 164.225 349.513 164.435 342.973C164.645 336.433 162.535 330.026 159.708 324.174C158.023 320.686 156.064 317.307 154.944 313.583C153.824 309.859 153.63 305.634 155.424 302.204C157.308 298.599 161.122 296.425 165.005 295.635C165.207 295.594 165.42 295.557 165.643 295.524C166.748 295.376 167.812 294.997 168.772 294.41C169.731 293.823 170.566 293.041 171.225 292.111C171.884 291.18 172.354 290.121 172.607 288.997C172.86 287.873 172.89 286.707 172.696 285.571C172.254 283.016 172.292 280.571 173.446 279.072Z" fill="#2F2E41"/>
<path d="M538.113 654.491H524.46L517.966 599.935L538.115 599.936L538.113 654.491Z" fill="#A0616A"/>
<path d="M514.709 650.449H541.038V667.624H498.131C498.131 665.369 498.56 663.135 499.393 661.052C500.226 658.968 501.447 657.074 502.987 655.48C504.526 653.885 506.353 652.62 508.365 651.757C510.376 650.894 512.532 650.449 514.709 650.449Z" fill="#2F2E41"/>
<path d="M637.171 638.469L624.754 644.345L596.965 597.518L615.294 588.844L637.171 638.469Z" fill="#A0616A"/>
<path d="M614.262 644.867L638.212 633.534L645.099 649.157L606.071 667.625C605.166 665.573 604.661 663.357 604.583 661.103C604.505 658.849 604.856 656.602 605.617 654.488C606.378 652.375 607.533 650.438 609.016 648.787C610.499 647.136 612.282 645.804 614.262 644.867V644.867Z" fill="#2F2E41"/>
<path d="M597.413 470.542C598.721 469.522 599.798 468.218 600.566 466.72C601.335 465.223 601.778 463.569 601.863 461.875C601.948 460.182 601.673 458.489 601.059 456.917C600.444 455.345 599.504 453.932 598.306 452.777L614.354 415.052L593.966 418.631L581.852 453.907C580.113 456.122 579.218 458.922 579.338 461.774C579.457 464.627 580.583 467.335 582.501 469.386C584.419 471.436 586.997 472.686 589.745 472.9C592.494 473.113 595.222 472.274 597.413 470.542Z" fill="#A0616A"/>
<path d="M537.243 640.106H524.201C522.936 640.101 521.719 639.603 520.793 638.711C519.866 637.818 519.299 636.597 519.202 635.29L512.09 438.518C512.037 437.764 512.144 437.007 512.403 436.3C512.662 435.593 513.066 434.954 513.589 434.426C514.111 433.898 514.738 433.494 515.427 433.244C516.115 432.993 516.848 432.901 517.575 432.975L593.003 441.274C594.225 441.398 595.361 441.982 596.195 442.917C597.029 443.851 597.503 445.07 597.526 446.343L599.107 533.141C599.115 533.612 599.204 534.078 599.367 534.518L630.308 617.645C630.547 618.287 630.661 618.972 630.642 619.66C630.623 620.348 630.472 621.025 630.198 621.652C629.925 622.28 629.533 622.844 629.047 623.313C628.56 623.782 627.989 624.146 627.365 624.383L614.149 629.428C613.001 629.866 611.738 629.854 610.598 629.394C609.458 628.934 608.52 628.059 607.96 626.932L569.951 550.362C569.744 549.946 569.592 549.502 569.501 549.044L563.008 516.632C562.819 515.693 562.314 514.853 561.583 514.264C560.851 513.675 559.941 513.376 559.015 513.419C558.09 513.463 557.21 513.846 556.532 514.501C555.855 515.156 555.425 516.039 555.32 516.993L542.221 635.505C542.082 636.771 541.497 637.94 540.579 638.789C539.661 639.637 538.473 640.106 537.243 640.106V640.106Z" fill="#2F2E41"/>
<path d="M543.737 284.661C558.842 284.661 571.087 271.975 571.087 256.325C571.087 240.676 558.842 227.989 543.737 227.989C528.631 227.989 516.386 240.676 516.386 256.325C516.386 271.975 528.631 284.661 543.737 284.661Z" fill="#A0616A"/>
<path d="M562.494 456.51C543.946 456.299 525.84 450.617 510.297 440.13L510.031 439.94L510.058 439.605L520.52 313.373C520.881 309.09 522.726 305.088 525.715 302.105C528.703 299.123 532.633 297.363 536.777 297.15C550.336 296.505 568.549 297.319 578.298 304.841C593.032 316.21 600.133 333.33 597.781 351.811C592.903 390.135 598.429 441.833 599.075 447.601L599.121 448.017L598.754 448.192C587.396 453.666 575.021 456.505 562.494 456.51V456.51Z" fill="#861BF7"/>
<path d="M598.949 447.815C598.178 447.814 597.415 447.647 596.71 447.325C596.004 447.003 595.371 446.532 594.85 445.944L588.867 439.182C588.221 438.447 587.767 437.552 587.551 436.583C587.335 435.614 587.363 434.604 587.632 433.65L601.274 385.813L580.517 340.654C579.548 338.54 579.31 336.144 579.845 333.871C580.316 331.875 581.36 330.073 582.839 328.705C584.318 327.336 586.163 326.464 588.131 326.203C590.098 325.943 592.095 326.306 593.859 327.246C595.623 328.186 597.071 329.657 598.011 331.466L626.178 378.816C627.323 380.737 627.994 382.92 628.134 385.172C628.274 387.425 627.878 389.679 626.98 391.736L604.03 444.419C603.651 445.29 603.07 446.05 602.338 446.63C601.606 447.21 600.746 447.592 599.835 447.742C599.542 447.79 599.246 447.815 598.949 447.815V447.815Z" fill="#861BF7"/>
<path d="M406.164 356.437C407.477 357.449 408.989 358.15 410.593 358.492C412.196 358.833 413.853 358.806 415.445 358.413C417.037 358.019 418.527 357.269 419.809 356.214C421.091 355.16 422.135 353.827 422.866 352.309L462.329 357.612L453.26 338.358L417.175 336.275C414.633 335.171 411.789 335.072 409.181 335.996C406.573 336.92 404.383 338.804 403.026 341.289C401.668 343.774 401.238 346.689 401.817 349.48C402.395 352.272 403.942 354.747 406.164 356.437V356.437Z" fill="#A0616A"/>
<path d="M493.147 366.952C492.46 366.952 491.773 366.903 491.093 366.805L429.01 357.884C427.995 357.74 427.031 357.336 426.205 356.709C425.379 356.083 424.716 355.253 424.276 354.295C424.134 353.986 424.016 353.666 423.922 353.338H423.922C423.682 352.486 423.615 351.592 423.725 350.712C423.835 349.832 424.12 348.985 424.562 348.225L429.7 339.401C430.253 338.458 431.03 337.677 431.957 337.135C432.884 336.592 433.931 336.305 434.996 336.302H435.004L489.119 336.366L529.536 298.851C531.416 297.11 533.817 296.092 536.336 295.968C538.548 295.862 540.739 296.452 542.62 297.663C544.501 298.873 545.984 300.645 546.873 302.746C547.763 304.847 548.016 307.178 547.601 309.431C547.185 311.684 546.12 313.754 544.546 315.368L504.218 361.836C502.822 363.446 501.115 364.734 499.208 365.615C497.301 366.496 495.235 366.952 493.147 366.952V366.952Z" fill="#861BF7"/>
<path d="M546.846 281.534C549.346 275.541 551.461 267.56 546.667 263.322C543.886 260.865 539.881 260.86 536.237 260.554C525.973 259.692 515.407 254.8 510.39 245.483C505.374 236.165 508.175 222.311 517.64 218.108C524.02 215.274 531.334 217.204 538.012 219.166L558.063 225.057C564.021 226.807 570.276 228.738 574.565 233.365C581.406 240.746 580.894 253.222 575.461 261.767C570.028 270.312 561.846 279.223 552.48 282.468L546.846 281.534Z" fill="#2F2E41"/>
<path d="M823.473 668H1.32598C1.15153 668 0.97871 667.965 0.817397 667.897C0.656085 667.828 0.509471 667.727 0.385941 667.599C0.26241 667.471 0.164396 667.32 0.0975212 667.153C0.0306467 666.986 -0.00378418 666.807 -0.00378418 666.626C-0.00378418 666.446 0.0306467 666.267 0.0975212 666.1C0.164396 665.933 0.26241 665.781 0.385941 665.654C0.509471 665.526 0.656085 665.425 0.817397 665.356C0.97871 665.287 1.15153 665.252 1.32598 665.253H823.473C823.648 665.252 823.821 665.287 823.982 665.356C824.143 665.425 824.29 665.526 824.413 665.654C824.537 665.781 824.635 665.933 824.702 666.1C824.769 666.267 824.803 666.446 824.803 666.626C824.803 666.807 824.769 666.986 824.702 667.153C824.635 667.32 824.537 667.471 824.413 667.599C824.29 667.727 824.143 667.828 823.982 667.897C823.821 667.965 823.648 668 823.473 668V668Z" fill="white"/>
</g>
<defs>
<clipPath id="clip0_103_3">
<rect width="915" height="668" fill="white"/>
</clipPath>
</defs>
</svg>
